<?xml version="1.0" standalone="no"?>
<!DOCTYPE svg PUBLIC "-//W3C//DTD SVG 20010904//EN"
 "http://www.w3.org/TR/2001/REC-SVG-20010904/DTD/svg10.dtd">
<svg version="1.0" xmlns="http://www.w3.org/2000/svg"
 width="1024.000000pt" height="749.000000pt" viewBox="0 0 1024.000000 749.000000"
 preserveAspectRatio="xMidYMid meet">

<g transform="translate(0.000000,749.000000) scale(0.100000,-0.100000)"
fill="#000000" stroke="none">
<path d="M636 7468 c-3 -13 -30 -259 -61 -548 -31 -289 -173 -1593 -315 -2899
-224 -2066 -256 -2376 -244 -2400 12 -25 175 -406 254 -596 134 -321 423
-1001 429 -1006 3 -4 1967 -10 4364 -14 l4357 -7 409 822 409 822 -112 882
-112 881 -981 3 -982 2 -5 43 c-3 23 -15 159 -26 302 -51 661 -290 3636 -295
3683 l-6 52 -3540 0 -3539 0 -4 -22z m2074 -410 c0 -7 -16 -308 -35 -668 -19
-360 -35 -679 -35 -707 l0 -53 305 0 c284 0 305 1 305 18 0 9 11 307 25 662
14 355 25 671 25 703 l0 57 879 0 879 0 6 -462 c3 -255 8 -691 11 -970 l6
-508 -614 0 -614 0 -6 -122 c-4 -66 -7 -183 -7 -259 l0 -139 623 -2 622 -3 6
-450 c3 -247 10 -879 14 -1402 l8 -953 -1007 0 -1006 0 5 93 c3 50 17 405 30
787 13 382 27 730 29 773 l5 77 -318 0 -319 0 -6 -82 c-7 -86 -86 -1592 -86
-1628 0 -20 -3 -20 -1005 -20 -797 0 -1005 3 -1005 13 0 24 272 2772 275 2785
4 9 138 12 628 12 l624 0 12 188 c6 103 14 220 18 260 l6 72 -618 0 -617 0 6
78 c4 42 11 104 16 137 5 33 46 435 91 893 l83 832 878 0 c696 0 878 -3 878
-12z m4705 -50 c3 -35 26 -351 50 -703 25 -352 47 -656 50 -675 5 -33 137
-1880 171 -2380 8 -129 17 -245 20 -257 l4 -23 975 0 c773 0 975 -3 975 -12 1
-7 31 -269 68 -583 l68 -570 -2005 -3 c-1102 -1 -2006 0 -2008 2 -5 5 -83
3167 -107 4356 -9 432 -19 813 -22 848 l-6 62 880 0 880 0 7 -62z"/>
</g>
</svg>
