<svg width="1098" height="672" fill="none" xmlns="http://www.w3.org/2000/svg"><path d="m552.079 157.98 2.92.32c3.201.352 6.401.711 9.601 1.071l6.916.763c6.239.69 12.478 1.386 18.716 2.083 6.528.729 13.057 1.453 19.586 2.177a51547.89 51547.89 0 0 1 32.857 3.659c11.274 1.26 22.548 2.514 33.823 3.763 13.596 1.507 27.191 3.018 40.786 4.532 5.193.579 10.387 1.156 15.58 1.731 6.103.677 12.206 1.357 18.308 2.041 2.246.252 4.491.501 6.738.749 3.051.337 6.102.68 9.153 1.024l2.73.297c6.093.696 6.093.696 7.207 1.81.523 10.393-.277 20.862-.875 31.238l-.269 4.853c-.234 4.217-.471 8.433-.71 12.649-.383 6.763-.763 13.526-1.137 20.29a5513.08 5513.08 0 0 1-.399 7.027c-.394 6.987-.721 13.942-.61 20.943l2.527-1.785c1.136-.761 2.273-1.52 3.411-2.277l1.65-1.182c4.898-3.199 8.781-2.912 14.412-1.756l3.463.677c4.645.93 9.281 1.898 13.912 2.89 1.995.425 3.991.84 5.988 1.253l3.572.759c5.974.821 8.95-1.801 13.627-5.204l1.69-1.312c6.47-4.53 12.788-2.737 20.209-1.474 3.986.746 7.962 1.535 11.937 2.339 1.52.302 3.041.605 4.562.906 4.097.815 8.194 1.638 12.29 2.461 4.298.864 8.598 1.721 12.897 2.58 7.211 1.441 14.422 2.887 21.631 4.335 8.331 1.674 16.662 3.34 24.995 5.002 8.032 1.602 16.062 3.21 24.093 4.82 3.412.684 6.824 1.366 10.236 2.046 4.015.801 8.028 1.606 12.041 2.416 1.472.296 2.944.59 4.416.882 2.011.4 4.021.806 6.031 1.213 1.12.226 2.25.451 3.4.684 2.82.681 5.36 1.574 8.01 2.727-6.73 8.367-14.892 15.2-22.973 22.223A652.67 652.67 0 0 0 984 332.5a798.578 798.578 0 0 1-10.949 9.695c-2.312 2.035-4.586 4.107-6.863 6.18a223.932 223.932 0 0 1-10.376 8.813c-5.516 4.436-10.623 9.258-15.686 14.203l-1.841 1.765-1.629 1.588c-2.489 1.887-4.633 2.387-7.736 1.99l-2.242-.554-2.559-.617-2.74-.688-5.772-1.391c-3.026-.741-6.052-1.486-9.078-2.232-2.923-.718-5.849-1.423-8.775-2.127l-2.734-.688c-7.13-1.72-7.129-1.72-13.873.686l-1.698 1.381-1.865 1.494-1.896 1.565-1.956 1.576A730.214 730.214 0 0 0 869 379a182.364 182.364 0 0 0 17.973 5.262l2.45.592c2.545.615 5.092 1.224 7.639 1.834l5.225 1.259c4.237 1.022 8.475 2.039 12.713 3.053-1.893 4.179-4.751 6.796-8.125 9.813l-1.782 1.618a663.314 663.314 0 0 1-11.136 9.862A538.45 538.45 0 0 0 887 418.5a830.396 830.396 0 0 1-10.938 9.688A703.34 703.34 0 0 0 869 434.5c-5.323 4.799-10.689 9.541-16.152 14.18-6.581 5.594-13.046 11.277-19.368 17.164a387.499 387.499 0 0 1-10.523 9.449A538.45 538.45 0 0 0 816 481.5c-5.323 4.799-10.689 9.541-16.152 14.18-6.581 5.594-13.046 11.277-19.368 17.164a387.499 387.499 0 0 1-10.523 9.449A538.45 538.45 0 0 0 763 528.5a798.578 798.578 0 0 1-10.949 9.695c-2.312 2.035-4.586 4.107-6.863 6.18-4.388 3.964-8.903 7.726-13.54 11.395-2.681 2.166-2.681 2.166-4.921 4.679-2.172 2.309-3.977 3.974-6.727 5.551-2.513-.158-2.513-.158-5.293-.976l-3.214-.924L708 563l-3.66-1.142a736.181 736.181 0 0 1-10.049-3.28c-2.215-.736-4.431-1.465-6.648-2.193a5406.448 5406.448 0 0 1-18.872-6.226 2670.894 2670.894 0 0 0-11.615-3.823 731.097 731.097 0 0 1-4.401-1.459 733.075 733.075 0 0 0-6.136-2.019 5326.1 5326.1 0 0 0-3.517-1.163c-3.209-.719-4.999-.693-8.102.305l-2.312 1.625c-6.354 3.251-15.924-.806-22.495-2.482l-3.534-.889c-3.198-.806-6.394-1.616-9.591-2.428-3.402-.863-6.806-1.721-10.21-2.579-6.549-1.652-13.097-3.309-19.645-4.968-7.53-1.908-15.062-3.811-22.594-5.713a74395.105 74395.105 0 0 1-43.967-11.122l-2.019-.511-1.984-.503c-6.031-1.527-12.062-3.053-18.094-4.578-17.224-4.356-34.447-8.72-51.665-13.101-5.766-1.466-11.533-2.928-17.3-4.388-4.202-1.064-8.402-2.131-12.602-3.198-1.874-.476-3.747-.951-5.621-1.424a3046.61 3046.61 0 0 1-7.359-1.87l-2.15-.54c-4.744-1.217-4.744-1.217-5.858-2.331-.944-6.723-1.201-13.378-1.316-20.16l-.063-3.123c-.065-3.26-.124-6.52-.183-9.779l-.131-6.67A9807.01 9807.01 0 0 1 374 425c-12.707-5.407-12.707-5.407-25.801-4.68-2.329 1.274-2.329 1.274-4.511 2.805l-2.474 1.441c-2.44 1.427-4.824 2.926-7.214 4.434a257.665 257.665 0 0 1-6.337 3.626c-1.787.991-3.546 2.031-5.304 3.073-8.097 3.136-17.193-1.387-25.011-3.976l-4.068-1.327a3030.74 3030.74 0 0 1-8.68-2.843c-6.949-2.285-13.905-4.547-20.86-6.812a9794.2 9794.2 0 0 1-7.107-2.316c-14.016-4.566-28.068-9.012-42.133-13.425-28.238-8.871-56.396-17.987-84.549-27.125C115.64 373.231 101.321 368.614 87 364v-3l7.108-2.793 6.477-2.544 16.629-6.533 9.798-3.849 2.009-.789 28.374-11.148c22.47-8.83 44.941-17.655 67.417-26.469l3.159-1.239c10.548-4.136 21.096-8.271 31.645-12.402l9.661-3.785c4.237-1.661 8.475-3.319 12.713-4.976a3496.833 3496.833 0 0 0 32.639-12.953c3.309-1.329 6.618-2.657 9.928-3.984 2.109-.849 4.216-1.703 6.321-2.561 2.907-1.185 5.818-2.355 8.731-3.522l2.581-1.067c6.156-2.443 11.467-3.237 17.994-1.511l2.119.547 2.135.578 2.216.578c1.784.467 3.565.943 5.346 1.422l-.092-2.274c-.845-21.584-1.03-43.128-.908-64.726 5.901-2.804 11.799-4.28 18.163-5.692l3.35-.761c3.656-.828 7.314-1.646 10.971-2.465a12748.382 12748.382 0 0 1 26.042-5.871c8.148-1.83 16.295-3.669 24.441-5.509 7.201-1.626 14.403-3.249 21.606-4.866 10.914-2.451 21.824-4.911 32.71-7.483l4.927-1.157c2.865-.672 5.726-1.359 8.586-2.055l3.725-.877 3.103-.749c7.814-1.192 15.645-.426 23.455.465ZM365.938 275l-2.786 1.125L361 277c3.636 1.979 6.884 2.525 11 3v-7c-2.079 0-4.173 1.235-6.062 2ZM772 288c-1.149 2.297-1.209 3.809-1.348 6.369l-.157 2.783-.159 3.062-.178 3.218c-.194 3.526-.381 7.053-.568 10.58l-.399 7.34c-.28 5.137-.556 10.274-.83 15.411-.351 6.58-.707 13.16-1.066 19.739a37518.45 37518.45 0 0 0-1.214 22.447c-.184 3.397-.366 6.794-.546 10.19l-.165 3.032c-.261 4.951-.429 9.87-.37 14.829a221.1 221.1 0 0 0 17.375-12.5 683.712 683.712 0 0 1 18.937-14.375c9.637-7.048 19.132-14.276 28.608-21.538L832 357l2.011-1.71c4.159-2.698 9.316-.849 13.916.113 6.119 1.344 12.206 2.824 18.292 4.309 2.327.566 4.657 1.119 6.988 1.671l2.147.536c4.743 1.115 8.245 1.537 12.499-1.042l1.698-1.381 1.865-1.494 1.896-1.564 1.956-1.577A730.214 730.214 0 0 0 900 351c-2.184-2.184-2.98-2.411-5.899-3.053l-2.426-.546-2.62-.565-2.682-.597c-2.831-.628-5.665-1.246-8.498-1.864l-5.754-1.273A4866.381 4866.381 0 0 0 858 340v-2c7.118-6.846 15.619-12.468 23.624-18.214l2.411-1.747 2.168-1.556c2.045-1.542 2.045-1.542 3.797-4.483a67274.362 67274.362 0 0 0-44.384-9.388c-6.87-1.45-13.739-2.902-20.608-4.358-6.626-1.404-13.253-2.804-19.88-4.202-2.531-.534-5.062-1.07-7.593-1.607-3.538-.751-7.077-1.497-10.616-2.242l-3.187-.68-2.923-.612-2.536-.536c-2.547-.483-2.547-.483-6.273-.375Zm-406.441 9.746-2.753 1.173-3.013 1.304-3.176 1.358a4810.064 4810.064 0 0 0-10.429 4.482 22704.7 22704.7 0 0 1-7.274 3.115c-3.781 1.619-7.561 3.238-11.34 4.86a8378.148 8378.148 0 0 1-29.982 12.798l-13.857 5.891a8033.305 8033.305 0 0 0-18.657 7.958c-2.125.908-4.252 1.813-6.379 2.716-3.237 1.375-6.47 2.758-9.703 4.142l-3.006 1.27-2.742 1.18-2.421 1.032c-2.001.842-2.001.842-2.827 2.975 22.903 6.743 45.808 13.481 68.715 20.213l5.682 1.67 2.774.815c6.165 1.812 12.329 3.627 18.493 5.442 5.151 1.517 10.303 3.03 15.455 4.54 1.997.586 3.993 1.174 5.99 1.763 2.694.795 5.39 1.585 8.086 2.373l2.317.688c2.935.853 5.414 1.496 8.488 1.496.172-32.344-.32-64.663-1-97-3.135 0-4.6.526-7.441 1.746Z" fill="#555199"/><path d="M425 185c1.642.214 3.284.422 4.927.627 5.883.739 11.759 1.523 17.635 2.31 16.611 2.229 16.611 2.229 33.266 4.094 9.16.923 18.253 2.189 27.36 3.531a6030.156 6030.156 0 0 1 12.992 1.897c3.936.557 7.874 1.058 11.82 1.541v3a2509.14 2509.14 0 0 1-10.5 2.937l-2.977.842c-5.521 1.528-10.817 2.684-16.523 3.221l-1 3h-4v78c-4.686 0-7.577-.697-12-2-2.779-.584-5.572-1.047-8.375-1.5l-2.338-.386c-6.306-1.016-12.628-1.806-18.98-2.468C451.2 283.1 451.2 283.1 449 282l-14-1v71c21.491 4.648 21.491 4.648 43.043 8.949l5.809 1.113c2.007.384 4.015.768 6.023 1.15 10.928 2.085 21.849 4.203 32.771 6.313 3.76.727 7.52 1.452 11.281 2.175 3.732.717 7.463 1.438 11.194 2.16 1.402.271 2.804.541 4.207.81 1.929.37 3.858.744 5.787 1.118l3.309.639C561 377 561 377 563 378c.521-13.991.974-27.979 1.254-41.977l.063-3.089c.103-5.121.201-10.242.29-15.363l.112-5.684.041-2.679c.127-6.095.127-6.095 1.24-7.208 8.75.175 17.402 1.566 26.012 3.031l3.562.594c2.456.411 4.912.824 7.368 1.241 3.773.639 7.547 1.268 11.322 1.896 2.395.401 4.79.804 7.185 1.207l3.425.571 3.148.536 2.775.469C633 312 633 312 635 313c.594 2.649.742 5.292 1 8l.312-3.313c.829-4.441.829-4.441 3.688-6.687a107.282 107.282 0 0 1 6.172-2.848l1.82-.78c1.269-.542 2.54-1.08 3.813-1.615a862.008 862.008 0 0 0 5.773-2.462c5.749-2.447 11.387-4.669 17.422-6.295l-.035-3.84c-.01-1.699-.019-3.398-.027-5.098l-.026-2.517-.01-2.51-.016-2.269c.096-2.326.315-4.555.598-6.862.634-5.461.752-10.905.875-16.396.064-2.19.129-4.38.196-6.571.101-3.423.196-6.846.268-10.27.073-3.325.177-6.648.286-9.972l.045-3.115c.101-2.623.233-5.028.846-7.58 2.352-2.088 2.352-2.088 5-3l3.258-1.289c1.287-.452 2.576-.897 3.867-1.336l2.178-.756c8.211-2.832 16.462-5.551 24.707-8.281 7.415-2.461 14.802-4.987 22.142-7.662C743.794 196 743.794 196 746 196c.094 8.716-.191 17.375-.656 26.078l-.202 3.917c-.175 3.393-.353 6.786-.533 10.179-.183 3.48-.363 6.959-.543 10.439-.352 6.796-.708 13.592-1.066 20.387-2.053.959-4.108 1.914-6.163 2.869l-3.467 1.614a146.655 146.655 0 0 1-8.761 3.607l-2.457.939a228.1 228.1 0 0 1-4.945 1.805l-2.41.943-2.146.789c-2.142 1.86-2.278 3.47-2.531 6.227L710 288l-.145 2.578a628.788 628.788 0 0 0-.355 9.207l-.123 3.434c-.129 3.615-.254 7.229-.377 10.843a17354.487 17354.487 0 0 1-.372 10.746 883.912 883.912 0 0 1-.281 6.908c-.205 4.626-.405 9.194-.153 13.82.093 3.582.109 6.128-1.194 9.464-4.094 3.632-8.632 5.581-13.625 7.625a532.77 532.77 0 0 0-3.855 1.73 299.945 299.945 0 0 1-7.171 3.128L679 369l-1.824.775c-1.93.929-3.536 1.841-5.176 3.225-1.085 3.274-1.085 3.274-.978 7.063l-.062 2.13c-.06 2.317-.071 4.631-.081 6.948-.032 1.608-.067 3.217-.105 4.825-.091 4.228-.141 8.456-.182 12.685-.049 4.317-.138 8.634-.223 12.951-.161 8.465-.279 16.931-.369 25.398 7.76-3.804 7.76-3.804 15.246-8.113l2.596-1.592c1.759-1.089 3.517-2.181 5.273-3.274l2.569-1.572 2.298-1.427C700 428 700 428 703 428c.509 6.815.795 13.61.656 20.445l-.06 3.415c-.737 3.882-2.169 5.652-4.908 8.452-1.559.894-3.122 1.781-4.726 2.59-4.25 2.379-8.023 5.539-11.9 8.473a1337.695 1337.695 0 0 1-4.902 3.586c-2.119 1.543-4.196 3.069-6.207 4.752C669 481 669 481 665.594 480.629c-1.37-.335-2.735-.692-4.094-1.067l-2.244-.574c-12.585-3.289-24.987-7.259-37.391-11.164-6.871-2.155-13.78-4.175-20.693-6.19a4543.91 4543.91 0 0 1-8.907-2.612c-1.452-.427-2.905-.852-4.358-1.277a411.116 411.116 0 0 1-13.731-4.265c-3.747-.827-6.89-1.157-10.352.664l-2.136 1.668a337.684 337.684 0 0 1-14.376 10.063l-2.159 1.48c-4.381 2.891-7.757 4.662-13.153 4.645-3.695-.762-7.232-1.884-10.812-3.063l-3.049-.963a765.058 765.058 0 0 1-14.471-4.779l-2.464-.835a404.63 404.63 0 0 1-4.531-1.581c-4.667-1.618-8.368-2.854-12.994-.697l-2.374 1.516-2.656 1.671-2.774 1.793-2.835 1.796A1609.198 1609.198 0 0 0 465 472c-1.274.809-2.548 1.616-3.824 2.422-2.398 1.517-4.79 3.042-7.176 4.578 2.583 1.722 4.289 2.538 7.173 3.449l2.542.809 2.746.859 2.853.904c3.019.956 6.04 1.905 9.061 2.854l5.988 1.894a3042.963 3042.963 0 0 0 26.855 8.372c4.585 1.416 9.151 2.89 13.72 4.359 7.296 2.338 14.596 4.573 21.992 6.578 3.009.904 5.913 1.994 8.847 3.114 4.224 1.535 8.542 2.774 12.848 4.058a1500.495 1500.495 0 0 1 27.104 8.44c3.65 1.172 7.293 2.316 10.982 3.361 3.368.972 6.625 2.115 9.914 3.324 6.729 2.433 13.518 4.586 20.375 6.625-1.741 3.787-3.047 5.367-7 7-6.785-.487-13.232-2.18-19.807-3.857l-3.534-.889c-3.198-.806-6.394-1.616-9.591-2.428-3.402-.863-6.806-1.721-10.21-2.579-6.549-1.652-13.097-3.309-19.645-4.968-7.53-1.908-15.062-3.811-22.594-5.713a74395.105 74395.105 0 0 1-43.967-11.122l-2.019-.511-1.984-.503c-6.031-1.527-12.062-3.053-18.094-4.578-17.224-4.356-34.447-8.72-51.665-13.101-5.766-1.466-11.533-2.928-17.3-4.388-4.202-1.064-8.402-2.131-12.602-3.199-1.874-.475-3.747-.95-5.621-1.423-2.454-.62-4.907-1.245-7.359-1.87l-2.15-.54c-4.744-1.217-4.744-1.217-5.858-2.331-.944-6.724-1.201-13.378-1.316-20.16l-.063-3.123c-.065-3.26-.124-6.52-.183-9.78l-.131-6.669A9807.01 9807.01 0 0 1 374 425c-12.707-5.407-12.707-5.407-25.801-4.68-2.329 1.274-2.329 1.274-4.511 2.805l-2.474 1.441c-2.44 1.427-4.824 2.926-7.214 4.434a257.665 257.665 0 0 1-6.337 3.626c-1.787.991-3.546 2.031-5.304 3.073-8.097 3.135-17.193-1.387-25.011-3.976l-4.067-1.327a2931.91 2931.91 0 0 1-8.681-2.843c-6.949-2.285-13.905-4.547-20.86-6.812a9794.2 9794.2 0 0 1-7.107-2.316c-14.016-4.566-28.068-9.012-42.133-13.425-28.238-8.871-56.396-17.987-84.549-27.125C115.64 373.231 101.321 368.614 87 364v-3l7.108-2.793 6.477-2.544 16.629-6.533 9.798-3.849 2.009-.789 28.374-11.148c22.47-8.83 44.941-17.656 67.417-26.469l3.159-1.239c10.548-4.136 21.096-8.271 31.645-12.402l9.661-3.785c4.237-1.661 8.475-3.319 12.713-4.976a3469.472 3469.472 0 0 0 32.639-12.954l9.928-3.983c2.109-.85 4.216-1.703 6.322-2.561 2.906-1.185 5.817-2.355 8.73-3.522l2.581-1.067c6.156-2.443 11.467-3.237 17.994-1.511l2.119.547 2.135.578 2.216.578c1.784.466 3.565.943 5.346 1.422l-.092-2.274c-.845-21.584-1.03-43.128-.908-64.726 4.887-2.228 9.683-3.847 14.918-5.078l2.238-.533c1.555-.366 3.11-.729 4.667-1.088a657.719 657.719 0 0 0 7.023-1.692c8.788-2.087 16.145-3.012 25.154-1.609Zm-59.062 90-2.786 1.125L361 277c3.636 1.979 6.884 2.525 11 3v-7c-2.079 0-4.173 1.235-6.062 2Zm-.379 22.746-2.753 1.173-3.013 1.304-3.176 1.358a5361.413 5361.413 0 0 0-10.429 4.481c-2.425 1.04-4.849 2.078-7.274 3.116-3.781 1.619-7.561 3.238-11.34 4.86a8378.148 8378.148 0 0 1-26.363 11.259l-3.619 1.539-13.857 5.891a8033.305 8033.305 0 0 0-18.657 7.958c-2.125.908-4.252 1.813-6.379 2.716-3.237 1.375-6.47 2.757-9.703 4.142l-3.006 1.27-2.742 1.18-2.421 1.032c-2.001.842-2.001.842-2.827 2.975 22.903 6.743 45.808 13.481 68.715 20.213l5.682 1.67 2.774.815c6.165 1.812 12.329 3.627 18.493 5.442 5.151 1.517 10.303 3.029 15.455 4.54 1.997.586 3.993 1.174 5.99 1.763 2.694.795 5.39 1.585 8.086 2.373l2.317.688c2.935.853 5.414 1.496 8.488 1.496.172-32.344-.32-64.663-1-97-3.135 0-4.6.526-7.441 1.746Z" fill="#4F4685"/><path d="M892.963 328.16c5.39 1.491 10.869 2.552 16.349 3.653 2.059.422 4.118.845 6.176 1.269L920 334c-1.845 4.097-4.564 6.462-8 9.25l-1.656 1.391C906.265 348 906.265 348 904 348v2l3.957.389c4.652.519 9.161 1.372 13.727 2.388l2.368.52c1.633.36 3.266.722 4.898 1.087 2.504.557 5.01 1.102 7.517 1.645l4.779 1.061 2.27.489c5.255 1.192 5.255 1.192 7.484 3.421-3.61 3.711-7.286 7.338-11.125 10.813l-1.883 1.707c-2.955 2.195-5.249 3.667-9.066 3.258-2.571-.528-5.103-1.149-7.645-1.805l-2.835-.689c-2.985-.726-5.966-1.472-8.946-2.221-2.98-.745-5.962-1.484-8.946-2.212a507.13 507.13 0 0 1-5.56-1.388c-7.113-1.746-7.113-1.746-13.847.66l-1.698 1.381-1.865 1.494-1.896 1.565-1.956 1.576A730.214 730.214 0 0 0 869 379a182.364 182.364 0 0 0 17.973 5.262l2.45.592c2.545.615 5.092 1.224 7.639 1.834l5.225 1.259c4.237 1.022 8.475 2.039 12.713 3.053-1.893 4.179-4.751 6.796-8.125 9.813l-1.782 1.618a663.314 663.314 0 0 1-11.136 9.862A538.45 538.45 0 0 0 887 418.5a830.396 830.396 0 0 1-10.938 9.688A703.34 703.34 0 0 0 869 434.5c-5.323 4.799-10.689 9.541-16.152 14.18-6.581 5.594-13.046 11.277-19.368 17.164a387.499 387.499 0 0 1-10.523 9.449A538.45 538.45 0 0 0 816 481.5c-5.323 4.799-10.689 9.541-16.152 14.18-6.581 5.594-13.046 11.277-19.368 17.164a387.499 387.499 0 0 1-10.523 9.449A538.45 538.45 0 0 0 763 528.5a798.578 798.578 0 0 1-10.949 9.695c-2.312 2.035-4.586 4.107-6.863 6.18-4.388 3.964-8.903 7.726-13.54 11.395-2.681 2.166-2.681 2.166-4.921 4.679-2.171 2.308-3.98 3.973-6.727 5.551-2.483-.152-2.483-.152-5.241-.964l-3.215-.925L708 563l-3.811-1.174c-4.31-1.345-8.601-2.747-12.892-4.15l-4.724-1.534a8834.357 8834.357 0 0 1-12.31-4.01c-4.203-1.37-8.407-2.736-12.611-4.103-8.219-2.672-16.436-5.349-24.652-8.029v-2l-2.348-.285c-4.858-.951-9.414-2.544-14.09-4.152-5.826-1.989-11.635-3.893-17.562-5.563-3.194-1-6.377-2.034-9.562-3.062-10.656-3.42-21.367-6.646-32.094-9.829-8.201-2.44-16.348-4.932-24.344-7.984-5.305-1.946-10.677-3.56-16.107-5.111-15.402-4.415-30.629-9.464-45.893-14.326l-6.141-1.956L454 481v-3c2.076-1.638 2.076-1.638 4.969-3.398l3.172-1.954 3.359-2.023 3.266-2a850.795 850.795 0 0 1 6.351-3.851 103.898 103.898 0 0 0 5.203-3.4c3.353-2.341 4.95-3.378 9.137-3.354 4.112 1.137 8.18 2.33 12.231 3.668l5.027 1.609c2.669.859 5.338 1.72 8.004 2.588 2.673.865 5.351 1.71 8.031 2.553l2.487.821c4.981 1.548 8.637 2.315 13.763.741 4.053-2.233 7.862-4.775 11.688-7.375l3.126-2.078c5.268-3.486 5.268-3.486 10.339-7.246 2.746-1.934 4.535-1.653 7.847-1.301 2.825.702 5.559 1.623 8.312 2.563 7.677 2.526 15.396 4.796 23.188 6.937 7.544 2.082 15.047 4.237 22.5 6.625a5613.908 5613.908 0 0 0 4.586 1.469c5.721 1.831 11.452 3.603 17.25 5.176 2.878.794 5.533 1.791 8.266 2.992 4.332 1.726 8.209 3.048 12.898 2.238 7.03-3.402 12.826-8.827 18.638-13.957 3.002-2.596 6.15-4.87 9.424-7.105C710.674 449.38 723.867 439.2 737 429l2.149-1.669c4.553-3.536 9.102-7.075 13.649-10.618 1.526-1.187 3.053-2.372 4.582-3.555 3.864-2.994 7.69-6.012 11.432-9.158 5.91-4.857 12.024-9.424 18.156-13.996a1883.443 1883.443 0 0 0 18.594-14.066 1398.639 1398.639 0 0 1 23.663-17.686l2.259-1.654 1.992-1.453c1.488-1.062 1.488-1.062 2.524-2.145 10.314.469 20.23 3.274 30.219 5.712 2.327.566 4.657 1.119 6.988 1.671l2.147.536c4.668 1.098 8.181 1.525 12.407-.95l1.571-1.254 1.729-1.358 1.751-1.419 1.811-1.432A639.31 639.31 0 0 0 899 351c-4.657-1.652-9.351-2.826-14.172-3.875l-4.699-1.047c-2.451-.543-4.902-1.083-7.354-1.619-2.38-.521-4.757-1.052-7.134-1.584l-2.232-.48c-5.182-1.168-5.182-1.168-7.409-3.395a206.195 206.195 0 0 1 6.414-5.734c2.584-2.183 2.584-2.183 4.672-4.532 7.992-7.559 16.499-3.344 25.877-.574Z" fill="#9F7CBE"/><path d="m561.75 202.25 2.113.199c11.225 1.062 22.378 2.462 33.539 4.067a707.424 707.424 0 0 0 24.41 3.047c8.884.958 17.758 1.962 26.625 3.062l3.052.373 2.82.354 2.462.307c2.124.325 4.146.82 6.229 1.341 3.397.299 6.795.507 10.199.719C676 216 676 216 677 217c.088 2.934.113 5.843.09 8.777l-.012 2.718c-.051 8.831-.225 17.659-.45 26.487-.066 2.584-.125 5.167-.185 7.75-.275 11.436-.782 22.848-1.443 34.268l-2.659 1.146c-3.277 1.413-6.553 2.828-9.829 4.243l-4.242 1.83c-2.041.88-4.082 1.762-6.122 2.644l-1.894.815c-6.565 2.471-6.565 2.471-12.254 6.322a167.476 167.476 0 0 0-.563 6.563l-.253 3.628L637 327h-1c-.954-4.77-1.04-9.161-1-14l-3.215-.487c-4.95-.751-9.899-1.507-14.848-2.263l-2.692-.411c-11.505-1.759-22.992-3.561-34.429-5.721l-2.472-.454-2.057-.392c-3.102-.369-6.167-.312-9.287-.272l-.06 3.655c-.404 23.843-1.084 47.567-2.94 71.345-19.107-3.349-38.166-6.907-57.206-10.615-2.648-.515-5.295-1.027-7.943-1.54a7210.365 7210.365 0 0 1-38.773-7.607l-3.049-.606c-7.043-1.41-14.051-2.926-21.029-4.632-.94-3.966-1.121-7.647-1.114-11.718V339.3c.001-2.149.008-4.296.016-6.445l.005-4.485c.003-3.924.013-7.848.024-11.772.011-4.009.015-8.017.02-12.026.011-7.857.028-15.715.049-23.572 7.177-1.537 13.542-.442 20.582 1.469 3.887.854 7.828 1.244 11.777 1.71a497.647 497.647 0 0 1 16.766 2.321l2.404.359 2.291.36 2.009.31c2.781.603 5.471 1.571 8.171 2.471v-78l4-1 1-2c2.816-.965 2.816-.965 6.562-1.937l2.006-.521c6.304-1.594 12.667-2.8 19.069-3.929 1.789-.326 3.578-.671 5.334-1.143 8.167-1.893 17.545-.009 25.779.78Z" fill="#817FC5"/><path d="m360.113 258.805 2.092.519 2.107.551 2.167.527c5.263 1.34 5.263 1.34 7.521 3.598.57 6.267.57 6.267-1.258 8.617-1.925 1.528-3.611 2.272-5.93 3.071l-2.167.761L363 277l2.152.621 2.786.817 2.777.808C373 280 373 280 374 281c.099 2.144.13 4.291.125 6.438l.008 3.558C374 294 374 294 373 296a192.08 192.08 0 0 1-8.449 3.426 660.32 660.32 0 0 0-24.008 9.93l-3.258 1.419-6.673 2.915a9423.166 9423.166 0 0 1-21.037 9.164c-9.987 4.337-20.014 8.568-30.067 12.749C265.941 341.252 252.47 347.122 239 353c23.055 7.236 46.252 13.987 69.442 20.774 5.21 1.525 10.42 3.053 15.63 4.58 6.779 1.986 13.557 3.973 20.336 5.957 1.731.507 3.461 1.014 5.191 1.523 4.095 1.204 8.193 2.394 12.3 3.552l2.351.67c1.441.411 2.884.816 4.329 1.214 3.879 1.112 7.036 2.55 10.421 4.73 2.489.866 2.489.866 5.098 1.465l2.908.728 3.056.745c6.995 1.759 13.855 3.601 20.661 6 4.712 1.527 9.492 2.781 14.277 4.062 6.821 1.828 13.549 3.753 20.223 6.07 4.361 1.46 8.791 2.671 13.218 3.914 5.547 1.584 11.053 3.297 16.559 5.016-2.572 2.908-5.516 4.593-8.875 6.504l-1.714.982c-1.801 1.03-3.606 2.053-5.411 3.077a5793.927 5793.927 0 0 0-5.411 3.087c-1.635.934-3.272 1.864-4.909 2.794A108.572 108.572 0 0 0 443 444c-7.067-.3-13.549-2.541-20.25-4.676l-3.55-1.11a4402.341 4402.341 0 0 1-11.2-3.526c-20.245-6.487-20.245-6.487-40.796-11.887-2.982-.745-5.729-1.733-8.599-2.82-4.743-1.456-7.538-.37-11.834 1.906l-2.459 1.426-2.61 1.399c-3.348 1.805-6.649 3.685-9.949 5.576a488.31 488.31 0 0 1-4.112 2.332 287.069 287.069 0 0 0-5.282 3.079c-8.097 3.136-17.193-1.387-25.011-3.976l-4.067-1.327c-2.895-.943-5.789-1.891-8.681-2.842-6.949-2.286-13.905-4.548-20.86-6.813a9794.2 9794.2 0 0 1-7.107-2.316c-14.016-4.566-28.068-9.012-42.133-13.425-28.238-8.871-56.396-17.987-84.549-27.125C115.64 373.231 101.321 368.614 87 364v-3l7.108-2.793 6.477-2.544 16.629-6.533 9.798-3.849 2.009-.789 28.374-11.148c22.47-8.83 44.941-17.655 67.417-26.469l3.159-1.239c10.548-4.136 21.096-8.271 31.645-12.402l9.661-3.785c4.237-1.661 8.475-3.319 12.713-4.976a3496.833 3496.833 0 0 0 32.639-12.953c3.309-1.329 6.618-2.657 9.928-3.984 2.109-.849 4.216-1.703 6.322-2.561 2.906-1.185 5.817-2.355 8.73-3.522l2.581-1.067c6.125-2.43 11.416-3.204 17.923-1.581Z" fill="#7751AA"/><path d="M892.963 328.16c5.39 1.491 10.869 2.552 16.349 3.653 2.059.422 4.118.845 6.176 1.269L920 334c-1.845 4.097-4.564 6.462-8 9.25l-1.656 1.391C906.265 348 906.265 348 904 348v2l3.957.389c4.652.519 9.161 1.372 13.727 2.388l2.368.52c1.633.36 3.266.722 4.898 1.087 2.504.557 5.01 1.102 7.517 1.645l4.779 1.061 2.269.489c5.256 1.192 5.256 1.192 7.485 3.421-3.61 3.711-7.286 7.338-11.125 10.813l-1.883 1.707c-2.955 2.195-5.249 3.667-9.066 3.258-2.571-.528-5.103-1.149-7.645-1.805l-2.835-.689c-2.985-.726-5.966-1.472-8.946-2.221-2.98-.745-5.962-1.484-8.946-2.212a507.13 507.13 0 0 1-5.56-1.388c-7.113-1.746-7.113-1.746-13.847.66l-1.698 1.381-1.865 1.494-1.896 1.565-1.956 1.576A730.214 730.214 0 0 0 869 379a182.364 182.364 0 0 0 17.973 5.262l2.45.592c2.545.615 5.092 1.224 7.639 1.834l5.225 1.259c4.237 1.022 8.475 2.039 12.713 3.053-1.893 4.179-4.751 6.796-8.125 9.813l-1.782 1.618a663.314 663.314 0 0 1-11.136 9.862A538.45 538.45 0 0 0 887 418.5a830.396 830.396 0 0 1-10.938 9.688A703.34 703.34 0 0 0 869 434.5a777.857 777.857 0 0 1-16.223 14.25l-1.768 1.51a978.292 978.292 0 0 1-3.651 3.097c-2.908 2.471-5.733 4.968-8.424 7.674l-2.809 2.782-2.43 2.519c-4.182 2.589-8.324 1.213-12.911.159a316.76 316.76 0 0 1-7.104-1.925l-2.613-.721c-1.811-.501-3.621-1.004-5.431-1.51-2.758-.772-5.519-1.535-8.281-2.298l-5.3-1.471-2.482-.688c-4.232-1.185-8.416-2.444-12.573-3.878 4.168-5.155 8.684-9.526 13.652-13.91 2.556-2.276 4.969-4.632 7.348-7.09l-2.883-.343c-4.759-.683-9.348-1.923-13.988-3.161l-2.795-.735c-2.925-.771-5.848-1.547-8.772-2.323l-5.974-1.577A9205.79 9205.79 0 0 1 749 421c3.092-3.122 6.164-6.041 9.625-8.75a469.335 469.335 0 0 0 10.25-8.312c5.891-4.833 11.985-9.38 18.093-13.934a1883.443 1883.443 0 0 0 18.594-14.066 1398.639 1398.639 0 0 1 23.663-17.686l2.259-1.654 1.992-1.453c1.488-1.062 1.488-1.062 2.524-2.145 10.314.469 20.23 3.274 30.219 5.712 2.327.566 4.657 1.119 6.988 1.671l2.147.536c4.668 1.098 8.181 1.525 12.407-.95l1.571-1.254 1.729-1.358 1.751-1.419 1.811-1.432A639.31 639.31 0 0 0 899 351c-4.657-1.652-9.351-2.826-14.172-3.875l-4.699-1.047c-2.451-.543-4.902-1.083-7.354-1.619-2.38-.521-4.757-1.052-7.134-1.584l-2.232-.48c-5.182-1.168-5.182-1.168-7.409-3.395a206.195 206.195 0 0 1 6.414-5.734c2.584-2.183 2.584-2.183 4.672-4.532 7.992-7.559 16.499-3.344 25.877-.574Z" fill="#9E7AC3"/><path d="M869.398 273.927a6512.79 6512.79 0 0 1 16.852 3.368c4.298.864 8.598 1.721 12.897 2.58 7.211 1.441 14.422 2.887 21.631 4.335 8.331 1.674 16.662 3.34 24.995 5.002 8.032 1.602 16.062 3.209 24.093 4.819 3.412.684 6.824 1.366 10.236 2.047 4.015.801 8.029 1.606 12.041 2.416 1.472.296 2.944.59 4.416.882 2.011.4 4.021.806 6.031 1.213 1.12.226 2.25.451 3.4.684 2.82.681 5.36 1.574 8.01 2.727-6.73 8.367-14.892 15.2-22.973 22.223A652.67 652.67 0 0 0 984 332.5a823.13 823.13 0 0 1-10.938 9.687A715.993 715.993 0 0 0 966 348.5l-2.555 2.273a117.82 117.82 0 0 0-4.578 4.391l-1.992 1.961-1.695 1.758c-5.338 2.735-14.264-.68-19.93-1.949l-2.723-.602c-2.843-.628-5.685-1.261-8.527-1.895l-5.816-1.287A9683.278 9683.278 0 0 1 904 350v-2a169.433 169.433 0 0 1 6.875-5.438 727.273 727.273 0 0 0 3.867-2.933l1.746-1.31c1.779-1.436 1.779-1.436 3.512-4.319l-3.969-.281c-6.893-.691-13.599-2.219-20.347-3.73-2.206-.494-4.414-.978-6.622-1.462C878.3 326.15 878.3 326.15 876 325c1.311-3.933 3.825-5.368 7.062-7.688l1.721-1.259A664.244 664.244 0 0 1 889 313a19469.978 19469.978 0 0 0-89.447-19.166c-9.184-1.946-18.368-3.891-27.553-5.834l-1 2-1-6c3.346-2.714 6.711-5.355 10.25-7.813l2.641-1.894c8.532-3.548 20.639 1.379 29.484 3.274 1.995.425 3.991.84 5.988 1.253l3.572.759c5.974.821 8.95-1.801 13.627-5.204l1.69-1.313c9.049-6.335 22.1-1.164 32.146.865Z" fill="#6F499C"/><path d="M284.75 366.5c1.45.446 2.9.888 4.352 1.328 2.516.764 5.03 1.532 7.541 2.309 8.078 2.5 16.19 4.871 24.312 7.223 4.635 1.343 9.268 2.691 13.902 4.038l2.34.68 2.339.68 7.017 2.035c3.736 1.084 7.469 2.175 11.201 3.272 1.396.408 2.793.815 4.19 1.219 1.936.559 3.869 1.128 5.802 1.698l3.307.965c2.938 1.05 5.315 2.396 7.947 4.053 2.489.865 2.489.865 5.098 1.465l2.908.728 3.056.744c6.995 1.76 13.855 3.602 20.661 6 4.712 1.528 9.492 2.782 14.277 4.063 6.821 1.828 13.549 3.753 20.223 6.07 4.361 1.46 8.791 2.67 13.218 3.914 5.547 1.583 11.053 3.296 16.559 5.016-2.572 2.908-5.516 4.593-8.875 6.504l-1.714.982c-1.801 1.03-3.606 2.053-5.411 3.076a5794.893 5794.893 0 0 0-5.411 3.088c-1.635.934-3.272 1.864-4.909 2.794A107.91 107.91 0 0 0 443 444c-7.067-.3-13.549-2.541-20.25-4.676l-3.55-1.11a4033.993 4033.993 0 0 1-11.2-3.527c-20.245-6.486-20.245-6.486-40.796-11.886-2.982-.745-5.729-1.733-8.599-2.821-4.743-1.455-7.538-.369-11.834 1.907l-2.459 1.425-2.61 1.4c-3.348 1.805-6.649 3.684-9.949 5.576a488.31 488.31 0 0 1-4.112 2.332 287.069 287.069 0 0 0-5.282 3.079c-8.551 3.311-18.446-1.781-26.734-4.504l-4.482-1.454c-3.121-1.012-6.241-2.03-9.36-3.051-3.979-1.303-7.96-2.598-11.942-3.89-3.823-1.241-7.645-2.485-11.466-3.73l-2.18-.709c-7.118-2.319-14.217-4.645-21.195-7.361 3.071-3.324 6.683-4.909 10.75-6.75l2.261-1.043c1.552-.715 3.105-1.428 4.658-2.139 3.641-1.669 7.266-3.37 10.893-5.068l6.438-3c-3.27-2.18-6.019-3.025-9.785-4.129l-1.991-.59c-2.094-.619-4.19-1.232-6.286-1.844-2.1-.616-4.199-1.234-6.298-1.854-1.901-.561-3.804-1.118-5.707-1.675C237 382 237 382 235 381v-2l2.316-.848c7.536-2.82 14.807-5.972 22.079-9.406l1.802-.827c1.844-.886 1.844-.886 3.548-2.147 6.798-4.442 12.818-1.599 20.005.728Z" fill="#8B64BC"/><path d="M375 425c7.22.582 13.697 2.623 20.566 4.852l7.346 2.328c3.836 1.223 7.67 2.45 11.501 3.687 3.713 1.198 7.433 2.372 11.153 3.547l3.46 1.133c6.776 2.126 11.554 3.484 18.218.422l1.912-1.254 2.16-1.358c1.458-.947 2.914-1.898 4.368-2.851 6.966-4.365 11.665-3.917 19.617-2.229 2.339.546 4.676 1.099 7.011 1.661l3.612.841c8.767 2.066 8.767 2.066 11.076 3.221v20l-4.844-.379c-6.9.008-11.085 2.63-16.656 6.441l-2.753 1.796a554.054 554.054 0 0 0-5.342 3.535c-3.038 2.03-6.123 3.977-9.218 5.919-1.396.895-2.793 1.79-4.187 2.688 2.583 1.722 4.289 2.538 7.173 3.449l2.542.81 2.746.858 2.853.905c3.019.955 6.04 1.904 9.061 2.853l5.988 1.895a3076.785 3076.785 0 0 0 26.855 8.371c4.585 1.416 9.151 2.89 13.719 4.359 7.297 2.338 14.597 4.573 21.993 6.578 3.009.904 5.913 1.994 8.847 3.114 4.224 1.535 8.542 2.774 12.848 4.058a1500.495 1500.495 0 0 1 27.104 8.44c3.65 1.172 7.293 2.316 10.982 3.361 3.367.972 6.625 2.115 9.914 3.324 6.729 2.433 13.518 4.586 20.375 6.625-1.741 3.787-3.047 5.367-7 7-6.785-.487-13.232-2.18-19.807-3.857l-3.534-.889c-3.198-.806-6.395-1.616-9.591-2.428-3.402-.863-6.806-1.721-10.21-2.579-6.549-1.652-13.097-3.309-19.645-4.968-7.53-1.908-15.062-3.811-22.594-5.713a74395.105 74395.105 0 0 1-43.967-11.122l-2.019-.511-1.984-.503c-6.031-1.527-12.062-3.053-18.094-4.578-17.224-4.356-34.447-8.72-51.665-13.101-5.766-1.466-11.533-2.928-17.3-4.388-4.202-1.064-8.402-2.131-12.602-3.199-1.874-.475-3.747-.95-5.621-1.423a3046.61 3046.61 0 0 1-7.359-1.87l-2.15-.54c-4.744-1.217-4.744-1.217-5.858-2.331-.971-6.745-1.133-13.354-1.098-20.16l.005-3.123c.005-3.26.018-6.52.03-9.779l.014-6.67c.011-5.423.028-10.845.049-16.268Z" fill="#2B2247"/><path d="M746 196c.094 8.716-.191 17.375-.656 26.078l-.202 3.917c-.175 3.393-.353 6.786-.533 10.179-.183 3.48-.363 6.96-.543 10.439-.352 6.796-.707 13.592-1.066 20.387a2864.92 2864.92 0 0 1-6.163 2.869l-3.467 1.614a146.655 146.655 0 0 1-8.761 3.607l-2.457.939a228.1 228.1 0 0 1-4.945 1.805l-2.41.943-2.146.789c-2.142 1.86-2.277 3.47-2.53 6.227L710 288l-.145 2.578a628.788 628.788 0 0 0-.355 9.207l-.123 3.434c-.129 3.615-.253 7.229-.377 10.843l-.25 7.209-.122 3.537a886.166 886.166 0 0 1-.281 6.909c-.206 4.625-.405 9.191-.149 13.817.097 3.589.116 6.126-1.198 9.466-4.138 3.651-8.716 5.623-13.75 7.688a568.01 568.01 0 0 0-3.906 1.755 304.31 304.31 0 0 1-7.222 3.153c-3.128 1.332-3.128 1.332-5.908 3.083C674 372 674 372 672 372c-.148-9.774.268-19.466.798-29.221a1472.26 1472.26 0 0 0 1.86-51.845l.049-2.431c.03-1.477.056-2.954.078-4.432.071-3.489.285-6.9.708-10.364.64-5.393.744-10.774.866-16.199.064-2.19.129-4.38.196-6.57.101-3.424.196-6.847.268-10.271.073-3.325.177-6.648.286-9.972l.045-3.115c.101-2.623.233-5.028.846-7.58 2.352-2.088 2.352-2.088 5-3l3.258-1.289c1.287-.452 2.576-.896 3.867-1.336l2.178-.756c8.211-2.832 16.462-5.551 24.707-8.281 7.416-2.461 14.802-4.987 22.142-7.662C743.795 196 743.795 196 746 196Z" fill="#4A3E78"/><path d="M572 452c2.825.702 5.559 1.623 8.312 2.562 7.677 2.527 15.396 4.797 23.188 6.938 8.327 2.297 16.587 4.728 24.812 7.367 12.789 4.102 25.692 7.747 38.688 11.133-.292 3.092-.971 3.974-3.336 6.078l-3.039 2.172-1.617 1.17a521.459 521.459 0 0 1-3.343 2.395c-2.572 1.83-5.116 3.698-7.665 5.56l-2.625 1.898c-2.373 1.646-2.373 1.646-4.27 3.528-3.241 1.846-5.22.926-8.793.011l-2.12-.53c-5.532-1.437-10.985-3.128-16.442-4.821l-2.213-.683a1004.846 1004.846 0 0 1-11.135-3.511l-4.195-1.318-3.766-1.208c-5.092-1.096-8.158-.536-12.562 2.193-1.113.825-2.218 1.66-3.317 2.503-1.228.903-2.457 1.804-3.687 2.704l-1.918 1.416a494.814 494.814 0 0 1-9.895 7.13l-1.823 1.352c-3.164 2.191-4.936 2.973-8.821 2.824L547 510l-2.797-.656c-9.383-2.681-18.599-5.807-27.844-8.926a442.999 442.999 0 0 0-23.038-7.025c-13.234-3.7-26.264-8.117-39.321-12.393v-3c2.076-1.638 2.076-1.638 4.969-3.398l3.172-1.954 3.359-2.023 3.266-2a850.795 850.795 0 0 1 6.351-3.851 103.898 103.898 0 0 0 5.203-3.4c3.353-2.341 4.95-3.378 9.137-3.354 4.112 1.137 8.18 2.33 12.231 3.667a2486.418 2486.418 0 0 1 13.031 4.198c2.673.865 5.351 1.71 8.031 2.552l2.487.822c4.981 1.548 8.637 2.315 13.763.741 4.053-2.233 7.862-4.775 11.688-7.375l3.126-2.078c5.268-3.486 5.268-3.486 10.339-7.246 2.746-1.934 4.535-1.653 7.847-1.301Z" fill="#9775C4"/><path d="m739.184 502.16 3.198.938c3.353.983 6.704 1.974 10.056 2.965l6.841 2.009A10683.75 10683.75 0 0 1 776 513c0 4 0 4-1.398 5.606l-1.977 1.582-2.211 1.824L768 524a687.887 687.887 0 0 0-5 4.5 798.578 798.578 0 0 1-10.949 9.695c-2.312 2.035-4.586 4.107-6.863 6.18-4.388 3.964-8.903 7.726-13.54 11.395-2.681 2.166-2.681 2.166-4.921 4.679-2.171 2.308-3.98 3.973-6.727 5.551-2.483-.152-2.483-.152-5.241-.964l-3.215-.925L708 563l-3.811-1.174c-4.31-1.345-8.601-2.747-12.892-4.15l-4.724-1.534a8834.357 8834.357 0 0 1-12.31-4.01c-4.203-1.37-8.407-2.736-12.611-4.103-8.219-2.672-16.436-5.349-24.652-8.029v-2l-2.344-.281c-5.836-1.148-11.346-3.243-16.957-5.192-4.558-1.558-8.89-2.95-13.699-3.527 4.29-3.499 8.744-6.729 13.268-9.913 3.221-2.274 6.397-4.581 9.513-6.997l1.858-1.41a163.153 163.153 0 0 0 3.478-2.719c3.076-2.308 4.612-2.974 8.5-2.789L644 506l2.512.465 2.176.473 2.199.464c2.113.598 2.113.598 3.945 1.539 6.499 3.174 14.23 4.398 21.229 6.204 3.487.908 6.898 1.841 10.306 3.019 3.596 1.142 5.998.761 9.633-.164 2.77-1.965 2.77-1.965 5-4h2v-2c2.04-1.828 4.23-3.406 6.426-5.043a95.628 95.628 0 0 0 4.929-4.008l2.27-1.949 2.039-1.812c5.831-2.965 14.644 1.227 20.52 2.972Z" fill="#64509A"/><path d="m360.113 258.805 2.092.519 2.107.551 2.167.527c5.263 1.34 5.263 1.34 7.521 3.598.57 6.267.57 6.267-1.258 8.617-1.925 1.528-3.611 2.272-5.93 3.071l-2.167.761L363 277l2.152.621 2.786.817 2.777.808C373 280 373 280 374 281c.099 2.144.13 4.291.125 6.438l.008 3.558C374 294 374 294 373 296a192.44 192.44 0 0 1-8.441 3.422 657.922 657.922 0 0 0-24.086 9.969l-3.278 1.43-6.702 2.93a3740.864 3740.864 0 0 1-10.501 4.565c-13.695 5.922-13.695 5.922-27.336 11.967a711.16 711.16 0 0 1-6.125 2.706 350.98 350.98 0 0 0-6.857 3.088c-7.557 3.256-12.796 3.044-20.674.923l-3.161-.806a340.058 340.058 0 0 1-9.464-2.694l-3.254-.934c-7.866-2.311-7.866-2.311-10.121-4.566l29-12c-2.514-2.514-4.38-2.801-7.812-3.691l-3.508-.924-3.68-.947c-2.396-.625-4.792-1.251-7.188-1.879l-3.23-.835C234 307 234 307 232 306v-2l3.413-1.335a156524.538 156524.538 0 0 0 66.429-26.003l6.474-2.536 6.186-2.425 5.946-2.325a681.257 681.257 0 0 0 14.239-5.738l2.744-1.135c1.69-.702 3.377-1.413 5.059-2.136 6.004-2.481 11.216-3.16 17.623-1.562Z" fill="#5E3B8E"/><path d="m547 201 3.215.232c3.849.3 7.692.65 11.535 1.018l2.113.199c11.225 1.062 22.378 2.462 33.539 4.067a704.97 704.97 0 0 0 24.41 3.047c8.884.958 17.758 1.962 26.626 3.062l3.052.373 2.819.354 2.462.307c2.124.325 4.146.82 6.229 1.341 3.397.299 6.795.507 10.199.719C676 216 676 216 677 217c.088 2.935.113 5.843.09 8.777l-.012 2.718c-.051 8.831-.225 17.659-.45 26.487-.066 2.584-.125 5.167-.185 7.75-.275 11.437-.782 22.848-1.443 34.268a2127.301 2127.301 0 0 1-12.268 5.444c-1.388.614-2.775 1.23-4.16 1.851-7.702 3.448-15.114 6.649-23.572 7.705-.103-11.39-.053-22.648 1-34h2l-.016-2.468c-.085-15.207-.135-30.357 1.016-45.532l-2.188-.164c-7.451-.585-14.838-1.44-22.25-2.398-8.578-1.077-16.907-1.903-25.562-1.438v-2l-3.438.063C582 224 582 224 581 223a85.395 85.395 0 0 0-4.562-.562l-2.504-.254L572 222l-1 2-3.031-.411c-2.987-.406-5.974-.81-8.961-1.214-3.39-.459-6.78-.92-10.17-1.382-7.397-1.006-14.793-2.004-22.205-2.887l-3.168-.384c-1.877-.224-3.756-.44-5.635-.645-4.856-.586-8.536-1.549-12.83-4.077 2.446-4.183 4.951-4.923 9.539-6.141l1.94-.521a442 442 0 0 1 4.07-1.058 405.04 405.04 0 0 0 6.142-1.632c6.865-1.824 13.202-3.27 20.309-2.648Z" fill="#8987CB"/><path d="M500 165v2l2.656.148c8.748.516 17.484 1.148 26.219 1.852l3.225.251 3.017.249 2.707.219C540 170 540 170 542 171c1.501.233 3.009.418 4.52.578l2.975.323 3.317.349 7.258.785 2.031.218c9.332 1.005 18.66 2.05 27.988 3.089 5.005.558 10.011 1.114 15.016 1.67l5.193.577L614 179c-1 2-1 2-3.867 2.961l-3.793.984-2.014.53c-2.127.557-4.258 1.104-6.388 1.65l-4.323 1.129c-3.536.924-7.075 1.838-10.615 2.746 3.083.422 6.166.839 9.25 1.25l2.997.4a826.804 826.804 0 0 0 20.226 2.37l2.459.262c4.084.434 8.168.86 12.255 1.272l4.551.481 2.134.205c4.901.533 4.901.533 7.128 2.76a628.545 628.545 0 0 1-32 10l-1.762.621c-3.289.557-6.366-.034-9.625-.547l-4.498-.663-2.377-.359c-11.948-1.796-23.875-3.437-35.926-4.364l-2.957-.23c-11.725-.863-11.725-.863-23.23 1.104-5.308 1.544-5.308 1.544-8.625.438l10-3v-1l-3.298-.427c-4.093-.531-8.186-1.065-12.278-1.599l-5.283-.687c-16.531-2.141-16.531-2.141-23.313-3.334-6.805-1.178-13.659-1.865-20.524-2.585-12.521-1.321-25.02-2.765-37.492-4.493l-3.595-.48-3.26-.465-2.844-.399L419 185l-1-2c10.248-2.351 20.496-4.698 30.746-7.041 4.758-1.088 9.517-2.177 14.275-3.269 4.59-1.053 9.181-2.103 13.772-3.151 1.753-.4 3.506-.802 5.259-1.205 2.451-.564 4.903-1.123 7.355-1.682l2.206-.51c2.869-.649 5.435-1.142 8.387-1.142Z" fill="#5D599F"/><path d="M892.963 328.16c5.39 1.491 10.869 2.552 16.349 3.653 2.059.422 4.118.845 6.176 1.269L920 334c-1.845 4.097-4.564 6.462-8 9.25l-1.656 1.391C906.265 348 906.265 348 904 348v2l3.957.389c4.652.519 9.161 1.372 13.727 2.388l2.368.52c1.633.36 3.266.722 4.898 1.087 2.504.557 5.01 1.102 7.517 1.645l4.779 1.061 2.269.489c5.256 1.192 5.256 1.192 7.485 3.421-3.61 3.711-7.286 7.338-11.125 10.813l-1.883 1.707c-2.955 2.195-5.249 3.667-9.066 3.258-2.571-.528-5.103-1.149-7.645-1.805l-2.835-.689c-2.985-.726-5.966-1.472-8.946-2.221-2.98-.745-5.962-1.484-8.946-2.212a507.13 507.13 0 0 1-5.56-1.388c-7.113-1.746-7.113-1.746-13.847.66l-1.698 1.381-1.865 1.494-1.896 1.565-1.956 1.576A730.214 730.214 0 0 0 869 379a182.364 182.364 0 0 0 17.973 5.262l2.45.592c2.545.615 5.092 1.224 7.639 1.834l5.225 1.259c4.237 1.022 8.475 2.039 12.713 3.053-1.286 2.855-2.585 4.806-4.898 6.91l-1.704 1.561-1.773 1.592-1.75 1.603c-1.61 1.465-3.219 2.921-4.875 4.334l-1.754 1.737c-3.38 1.901-5.599 1.041-9.34.244l-2.114-.441c-8.492-1.816-16.896-4.017-25.292-6.227A4641.224 4641.224 0 0 1 845 398c1.352-3.112 2.759-4.908 5.406-7.016l2.004-1.601 2.09-1.633 2.09-1.68c5.143-4.07 5.143-4.07 7.41-4.07v-2l-3.766-.32c-5.804-.647-11.343-2.081-16.984-3.555-2.122-.545-4.245-1.09-6.367-1.633l-3.066-.786c-4.517-1.132-9.062-2.117-13.622-3.065C818 370 818 370 816 368l1.728-1.269 7.71-5.668 2.72-1.998 2.588-1.905 2.396-1.761c1.772-1.267 1.772-1.267 2.858-2.399 10.314.469 20.23 3.274 30.219 5.712 2.327.566 4.657 1.119 6.988 1.671l2.147.536c4.668 1.098 8.181 1.525 12.407-.95l1.571-1.254 1.729-1.358 1.751-1.419 1.811-1.432A639.31 639.31 0 0 0 899 351c-4.657-1.652-9.351-2.826-14.172-3.875l-4.699-1.047c-2.451-.543-4.902-1.083-7.354-1.619-2.38-.521-4.757-1.052-7.134-1.584l-2.232-.48c-5.182-1.168-5.182-1.168-7.409-3.395a206.195 206.195 0 0 1 6.414-5.734c2.584-2.183 2.584-2.183 4.672-4.532 7.992-7.559 16.499-3.344 25.877-.574Z" fill="#C1A7C6"/><path d="m395 400 2.052.568a194.86 194.86 0 0 1 6.573 2.12c7.219 2.364 14.472 4.48 21.813 6.437 6.675 1.785 13.254 3.678 19.785 5.945 4.361 1.46 8.791 2.671 13.218 3.914 5.547 1.583 11.053 3.297 16.559 5.016-2.572 2.908-5.516 4.593-8.875 6.504l-1.714.982c-1.801 1.03-3.606 2.053-5.411 3.077a5793.927 5793.927 0 0 0-5.411 3.087c-1.635.934-3.272 1.864-4.909 2.794A108.572 108.572 0 0 0 443 444c-7.067-.3-13.549-2.541-20.25-4.676l-3.55-1.11a4402.341 4402.341 0 0 1-11.2-3.526c-20.245-6.487-20.245-6.487-40.796-11.887-2.982-.745-5.729-1.733-8.599-2.82-4.743-1.456-7.538-.37-11.834 1.906l-2.459 1.426-2.61 1.399c-3.348 1.805-6.649 3.684-9.949 5.576a488.31 488.31 0 0 1-4.112 2.332 287.069 287.069 0 0 0-5.282 3.079c-6.682 2.588-13.522-.182-20.015-2.422l-2.387-.802c-2.488-.839-4.973-1.688-7.457-2.537-1.698-.575-3.396-1.148-5.094-1.721A3850.207 3850.207 0 0 1 275 424v-2c4.705-2.439 9.419-4.86 14.142-7.263 1.604-.82 3.205-1.644 4.804-2.474a806.714 806.714 0 0 1 6.933-3.544l2.144-1.127c6.079-3.042 11.216-3.375 17.797-1.42l2.604.759 2.701.819 2.805.823a529.216 529.216 0 0 1 12.121 3.716l3.387 1.086 2.871.961c7.807 1.926 12.662-.94 19.503-4.523l2.87-1.463c5.455-2.781 5.455-2.781 10.741-5.864 5.304-3.29 8.533-4.193 14.577-2.486Z" fill="#C0A5C4"/><path d="M885 278c6.936.666 13.671 1.819 20.499 3.193l3.379.671c3.661.727 7.321 1.461 10.981 2.195l7.661 1.528c5.34 1.066 10.679 2.134 16.018 3.205 6.164 1.236 12.329 2.466 18.495 3.693a15629.19 15629.19 0 0 1 17.842 3.564c2.524.505 5.049 1.009 7.574 1.511 3.524.701 7.047 1.408 10.57 2.117l3.161.626 2.91.59 2.52.504c2.58.651 4.95 1.566 7.39 2.603-5.1 6.335-10.92 11.624-17 17l-2.348 2.09c-1.871 1.654-3.739 3.304-5.652 4.91l-1.774 1.635c-2.949 1.808-4.254 1.404-7.593.67l-3.164-.667-3.344-.763-3.414-.731c-3.241-.698-6.476-1.417-9.711-2.144-2.666-.588-5.333-1.17-8-1.75l-3.223-.707a64.729 64.729 0 0 0-7.215-.981c-4.596-.421-8.898-1.668-13.335-2.903-5.352-1.47-10.735-2.702-16.165-3.847l-2.364-.505c-4.886-1.015-9.739-1.749-14.698-2.307v-3a71.774 71.774 0 0 1 5.875-4.688l1.684-1.259C906.719 301 906.719 301 909 301v-2l-1.673-.111c-7.804-.639-15.318-2.257-22.952-3.951-1.303-.286-2.607-.57-3.91-.854A3070.75 3070.75 0 0 1 871 292c1.595-4.426 3.054-6.18 7-8.812l2.688-1.833C883 280 883 280 885 280v-2Z" fill="#423073"/><path d="m674 476 2 1-4 5a22537.14 22537.14 0 0 0 19.806 5.927c2.246.671 4.491 1.343 6.736 2.016 3.229.968 6.459 1.933 9.688 2.897l3.038.912 2.85.849 2.496.747c2.447.669 4.894 1.184 7.386 1.652l-1.691 1.254c-2.451 1.853-4.851 3.76-7.247 5.684l-2.527 2.027a325.136 325.136 0 0 0-5.226 4.289C705 512 705 512 703 512v2c-3.181 2.971-6.797 5.688-11.18 6.309-5.513-.475-10.706-2.502-15.894-4.329-3.277-1.098-6.535-1.857-9.914-2.554-4.604-.975-9.057-2.429-13.512-3.926l-2.297-.766-5.953-1.984c-4.666-1.077-7.095-.45-11.195 2.035l-3.18 2.277-1.707 1.214A825.07 825.07 0 0 0 623 516l-3.117 2.234c-5.317 3.766-5.317 3.766-10.195 8.059-3.074 1.952-4.756 1.989-8.296 1.33-5.117-1.332-10.09-3.069-15.08-4.811C574.636 518.82 562.901 515.253 551 512c3.064-2.347 6.216-4.516 9.43-6.652l3.16-2.104 3.285-2.182 3.262-2.169 6.042-4.018c2.893-1.868 2.893-1.868 5.739-4.174 5.078-2.803 9.254-.956 14.545.498 1.661.492 3.32.988 4.978 1.489l2.685.795c2.814.834 5.625 1.675 8.436 2.517 2.816.841 5.631 1.681 8.448 2.517 1.747.518 3.493 1.04 5.239 1.566 6.284 1.901 6.284 1.901 12.751 2.917 2.372-1.421 4.189-2.721 6.25-4.5 1.143-.935 2.288-1.869 3.434-2.801l1.698-1.401c2.228-1.787 4.565-3.387 6.93-4.986 3.882-2.669 7.417-5.563 10.899-8.734 1.858-1.638 3.79-3.116 5.789-4.578Z" fill="#8A65AA"/><path d="m171.426 334.305 2.416.769 2.47.801 2.436.777c5.432 1.74 10.845 3.533 16.252 5.348v3l-2.641.918C182.336 349.443 172.484 353.174 163 358c3.853 1.294 7.708 2.585 11.562 3.875l3.292 1.105c5.354 1.791 10.698 3.535 16.146 5.02v2c-3.544 2.479-7.267 3.96-11.312 5.437-3.721 1.397-7.346 2.796-10.876 4.625-2.898 1.48-5.791 2.956-8.75 4.313l-2.277 1.086c-7.778 1.505-17.364-3.137-24.703-5.524l-3.685-1.187a6735.383 6735.383 0 0 1-9.625-3.115 6550.567 6550.567 0 0 0-9.778-3.158C94.301 366.441 94.301 366.441 87 364v-3l20.972-8.243 9.744-3.83 1.903-.747 3.778-1.486c3.096-1.217 6.193-2.432 9.291-3.642 5.329-2.084 10.65-4.179 15.938-6.364l2.508-1.022a271.063 271.063 0 0 0 4.421-1.847c5.89-2.384 10.035-1.388 15.871.486Z" fill="#4A3580"/><path d="m764.289 423.996 2.265.587c2.359.612 4.715 1.233 7.071 1.854l4.758 1.237c6.56 1.708 13.105 3.443 19.617 5.326-1.31 2.966-2.611 4.792-5.117 6.84l-1.84 1.533-1.918 1.564c-4.181 3.427-7.903 6.667-11.125 11.063l2.082.531A1920.286 1920.286 0 0 1 830 468c-8.462 8.557-17.123 17.086-27 24v-2l-2.854-.695a819.428 819.428 0 0 1-29.197-7.769c-2.369-.674-4.741-1.337-7.113-2.001-1.516-.43-3.031-.861-4.547-1.293l-2.137-.593c-4.923-1.42-4.923-1.42-7.152-3.649 20.507-19 20.507-19 24-19v-2l-1.811-.282c-8.106-1.359-15.977-3.386-23.898-5.549-2.246-.611-4.496-1.208-6.746-1.804-1.441-.39-2.882-.781-4.322-1.174l-2.021-.53c-3.637-1.01-6.357-2.157-9.202-4.661 3.511-3.608 7.173-6.925 11.062-10.125l1.565-1.301c1.45-1.2 2.911-2.388 4.373-3.574l1.809-1.867c5.48-2.833 13.775.346 19.48 1.863Z" fill="#A889D2"/><path d="m547 201 3.215.232c3.849.3 7.692.65 11.535 1.018l2.113.199c11.225 1.062 22.378 2.462 33.539 4.067a704.97 704.97 0 0 0 24.41 3.047c8.884.958 17.758 1.962 26.626 3.062l3.052.373 2.819.354 2.462.307c2.125.325 4.147.818 6.229 1.341 2.247.22 4.498.405 6.75.563l3.547.253L676 216v4c-9.968 3.962-19.917 7.752-30.156 10.957-2.93.848-2.93.848-4.844 3.043-.465 3.122-.465 3.122-.625 6.625l-.227 3.602L640 247h-1v-17l-5.223-.402c-6.432-.535-12.814-1.333-19.215-2.16-8.578-1.077-16.907-1.903-25.562-1.438v-2l-3.438.063C582 224 582 224 581 223a85.395 85.395 0 0 0-4.562-.562l-2.504-.254L572 222l-1 2-3.031-.411c-2.987-.406-5.974-.81-8.961-1.214-3.39-.459-6.78-.92-10.17-1.382-7.397-1.006-14.793-2.004-22.205-2.887l-3.168-.384c-1.877-.224-3.756-.44-5.635-.645-4.856-.586-8.536-1.549-12.83-4.077 2.446-4.183 4.951-4.923 9.539-6.141l1.94-.521a442 442 0 0 1 4.07-1.058 405.04 405.04 0 0 0 6.142-1.632c6.865-1.824 13.202-3.27 20.309-2.648Z" fill="#9795D3"/><path d="M769 322c.22 15.976-.303 31.846-1.227 47.794-.213 3.691-.417 7.383-.619 11.075l-.4 7.127-.183 3.302c-.17 2.903-.363 5.802-.571 8.702l-.148 2.397c-.261 3.034-.534 5.168-2.355 7.656l-1.946 1.486-2.189 1.72L757 415l-2.389 1.843a449.192 449.192 0 0 1-7.423 5.532l-2.561 1.902-2.459 1.809-2.21 1.626C738 429 738 429 735 430c-.205-17.646.327-35.141 1.438-52.75l.408-6.805c.256-4.284.529-8.566.813-12.849.221-3.385.387-6.758.453-10.149.267-8.82.267-8.82 3.54-12.127l3.286-1.195 3.277-1.305C751 332 751 332 753 332v-2c2.478-1.336 4.957-2.669 7.438-4l2.142-1.156C767.887 322 767.887 322 769 322Z" fill="#3F3971"/><path d="m360.113 258.805 2.092.519 2.107.551 2.167.527c5.263 1.34 5.263 1.34 7.521 3.598.57 6.267.57 6.267-1.258 8.617-1.925 1.528-3.611 2.272-5.93 3.07l-2.167.762L363 277l2.152.621 2.786.816 2.777.809C373 280 373 280 374 281c.099 2.144.13 4.291.125 6.437l.008 3.559C374 294 374 294 373 296c-1.696.85-1.696.85-3.91 1.699l-2.477.967-2.675 1.021c-7.835 3.025-7.835 3.025-15.508 6.43l-2.117.994a150.567 150.567 0 0 0-3.846 1.894c-8.555 4.027-17.547.36-26.155-2.005-8.573-2.377-8.573-2.377-17.312-4v-2l1.772-.703c2.66-1.055 5.319-2.114 7.978-3.172l2.789-1.105 2.695-1.075 2.476-.984c2.292-.921 2.292-.921 4.4-2.083C323 291 323 291 326 291v-2l-2.723-.309c-5.666-.809-11.176-2.337-16.715-3.754l-3.373-.853c-2.73-.691-5.46-1.386-8.189-2.084 1-3 1-3 3.085-4.158l2.783-1.11 3.146-1.274 3.431-1.345 3.511-1.399c2.457-.977 4.916-1.948 7.379-2.912 2.52-.988 5.036-1.986 7.548-2.995 3.62-1.452 7.246-2.888 10.875-4.319l3.394-1.363c7.124-2.768 12.411-4.203 19.961-2.32Z" fill="#573774"/><path d="M425 185c1.642.214 3.284.422 4.927.627 5.883.739 11.759 1.523 17.635 2.31 16.611 2.229 16.611 2.229 33.266 4.094 9.16.923 18.253 2.189 27.36 3.531a6030.156 6030.156 0 0 1 12.992 1.897c3.936.557 7.874 1.058 11.82 1.541v3a2509.14 2509.14 0 0 1-10.5 2.937l-2.977.842c-5.521 1.528-10.817 2.684-16.523 3.221l-1 3h-4v78h-5l4-1v-76h-8c-1.793-.16-3.583-.359-5.366-.607l-2.991-.408-3.2-.454-3.432-.473c-3.723-.514-7.445-1.036-11.167-1.558l-7.768-1.076c-6.106-.846-12.212-1.697-18.317-2.55-6.954-.972-13.91-1.937-20.865-2.902A51408.506 51408.506 0 0 1 373 197l-1 34h-1v-36c5.071-2.173 9.626-3.834 14.918-5.078l2.238-.533c1.555-.366 3.11-.729 4.667-1.088a657.719 657.719 0 0 0 7.023-1.692c8.788-2.087 16.145-3.012 25.154-1.609Z" fill="#4D4178"/><path d="m279.367 364.762 2.306.682c2.41.721 4.805 1.481 7.202 2.243 1.632.495 3.265.986 4.898 1.475 11.489 3.469 11.489 3.469 14.227 4.838-1 3-1 3-3.959 4.626a267.824 267.824 0 0 1-3.92 1.729l-2.081.929a992.772 992.772 0 0 1-6.602 2.903c-1.49.66-2.979 1.321-4.467 1.983-3.652 1.621-7.31 3.229-10.971 4.83v2l2.26.687c3.414 1.039 6.827 2.082 10.24 3.125l3.555 1.081c6.064 1.856 12.041 3.791 17.945 6.107-2.681 3.181-6.124 4.77-9.785 6.574l-1.991.996c-1.384.691-2.77 1.38-4.158 2.065a1260.18 1260.18 0 0 0-6.373 3.179c-1.346.671-2.693 1.341-4.041 2.01l-1.928.966C277.231 422 277.231 422 275 422l-1 2-38-12v-3a4615.376 4615.376 0 0 1 34-16c-3.27-2.18-6.019-3.025-9.785-4.129l-1.991-.59c-2.094-.619-4.19-1.232-6.286-1.844-2.1-.616-4.199-1.234-6.298-1.854-1.901-.561-3.804-1.118-5.707-1.675C237 382 237 382 235 381v-2l2.316-.848c7.536-2.82 14.807-5.972 22.079-9.406l1.795-.84c1.838-.888 1.838-.888 3.618-2.013 5.454-3.201 8.664-3.071 14.559-1.131Z" fill="#855CA7"/><path d="M825 371c2.15.485 4.304.952 6.461 1.402l6.914 1.535 3.461.764A720.2 720.2 0 0 1 864 380v2a126.034 126.034 0 0 1-6.188 4.875l-3.48 2.617-1.705 1.28c-4.439 3.063-4.439 3.063-7.627 7.228l3.488.375c4.339.545 8.48 1.506 12.703 2.621l2.27.587c2.368.613 4.735 1.234 7.101 1.854l4.772 1.237c6.577 1.707 13.139 3.437 19.666 5.326-2.893 3.978-6.184 7.068-9.926 10.215-2.076 1.738-2.076 1.738-3.867 3.601L879.5 425.5l-1.469 1.531c-5.499 2.623-14.517-1-20.183-2.429l-2.851-.715c-1.973-.496-3.945-.995-5.917-1.497-3.03-.768-6.063-1.517-9.098-2.265-1.92-.486-3.84-.973-5.759-1.461l-2.759-.673-2.53-.657-2.235-.562L825 416l-1-3 1.941-1.539c4.086-3.252 8.146-6.503 12.059-9.961 3-2.5 3-2.5 5-2.5v-2l-3.172-.629C825.101 393.388 810.557 389.716 796 386c0-3 0-3 1.585-4.658a372.304 372.304 0 0 1 7.29-5.655l2.492-2.033c6.57-4.973 9.978-5.097 17.633-2.654Z" fill="#9871B7"/><path d="M641 169c7.294-.158 14.345.458 21.588 1.285l3.728.414c3.347.372 6.693.749 10.04 1.128 3.507.396 7.014.786 10.522 1.177 6.63.74 13.259 1.485 19.888 2.231 7.553.851 15.105 1.695 22.658 2.54A60831.41 60831.41 0 0 1 776 183l1 3a792.317 792.317 0 0 1-11.841 4.382 332.9 332.9 0 0 0-4.014 1.496 316.638 316.638 0 0 1-5.825 2.13l-3.523 1.301c-3.571.65-5.028.589-8.423-.19-5.038-1.081-10.04-1.764-15.16-2.324l-2.793-.316a3976.66 3976.66 0 0 0-9.054-1.01l-6.366-.717c-5.573-.628-11.147-1.25-16.721-1.872-8.897-.993-17.793-1.994-26.69-2.994-3.081-.346-6.163-.69-9.245-1.034-4.609-.514-9.217-1.037-13.825-1.565-2.454-.279-4.908-.549-7.363-.818l-4.371-.502-3.782-.423C625 181 625 181 622 179l1-2c1.934-.533 3.872-1.056 5.828-1.5 1.867-.43 3.711-.956 5.547-1.5 4.501-1.242 9.04-2.133 13.625-3l-7-1v-1Z" fill="#534D8D"/><path d="M205 320c2.089.566 4.182 1.117 6.277 1.656 2.221.612 4.441 1.227 6.661 1.844l3.439.934 3.275.91 2.969.818C230 327 230 327 232 329c-6.619 3.623-13.507 6.507-20.5 9.312l-2.718 1.096-2.563 1.018-2.315.919C202 342 202 342 200 342v2l2.906.316c4.701.673 9.095 2.14 13.594 3.621 1.635.531 3.271 1.061 4.906 1.59l2.348.762c3.065.97 6.149 1.849 9.246 2.711-2.084 2.084-3.373 2.685-6.078 3.734l-2.5.983-2.672 1.033c-1.817.713-3.633 1.428-5.449 2.145l-2.72 1.072c-4.684 1.875-9.305 3.887-13.929 5.904C197 369 197 369 194 370v-2l-1.801-.297c-5.743-1.036-10.996-2.605-16.441-4.691-3.567-1.309-7.192-2.318-10.86-3.301C163 359 163 359 162 357l2.457-.918c6.477-2.45 12.833-5.033 19.105-7.969 4.12-1.881 6.83-3.113 11.438-3.113v-3l-3.887-.813c-5.068-1.127-9.983-2.604-14.925-4.187l-2.522-.789c-3.724-1.183-7.198-2.392-10.666-4.211 4.815-3.21 10.215-5.191 15.549-7.388a298.953 298.953 0 0 0 4.119-1.746c13.987-6.043 13.987-6.043 22.332-2.866Z" fill="#704891"/><path d="m674 476 2 1-4 5a22537.14 22537.14 0 0 0 19.806 5.927c2.246.671 4.491 1.343 6.736 2.016 3.229.968 6.459 1.933 9.688 2.897l3.038.912 2.85.849 2.496.747c2.447.669 4.894 1.184 7.386 1.652l-1.691 1.254c-2.451 1.853-4.851 3.76-7.247 5.684l-2.527 2.027a325.136 325.136 0 0 0-5.226 4.289C705 512 705 512 703 512v2c-3.181 2.971-6.797 5.688-11.18 6.309-5.513-.475-10.706-2.502-15.894-4.329-3.277-1.098-6.535-1.857-9.914-2.554-5.389-1.141-10.58-2.935-15.789-4.696-3.051-1.002-6.128-1.874-9.223-2.73v-2l-2-1c12.273-9.561 12.273-9.561 18.312-13.688 3.882-2.669 7.417-5.563 10.899-8.734 1.858-1.638 3.79-3.116 5.789-4.578Z" fill="#936EB3"/><path d="M703 428c.509 6.816.795 13.61.656 20.445l-.06 3.415c-.737 3.882-2.169 5.652-4.908 8.452-1.559.894-3.122 1.781-4.726 2.59-4.25 2.379-8.023 5.539-11.9 8.473a1337.695 1337.695 0 0 1-4.902 3.586c-2.119 1.543-4.196 3.069-6.207 4.752C669 481 669 481 665.594 480.629c-1.37-.335-2.734-.692-4.094-1.067l-2.209-.563c-9.172-2.391-18.239-5.191-27.291-7.999.198-1.825.198-1.825 1-4 2.093-1.453 2.093-1.453 4.832-2.805 4.095-2.105 8.07-4.289 11.992-6.703l2.928-1.801 5.906-3.656c8.152-5.012 8.152-5.012 12.248-6.98 6.476-3.123 12.515-7.095 18.626-10.866 1.659-1.022 3.323-2.035 4.988-3.048l2.971-1.828C700 428 700 428 703 428Z" fill="#332954"/><path d="m552.223 158.01 2.931.325c3.16.352 6.319.711 9.479 1.071l6.616.74c5.777.646 11.554 1.299 17.33 1.953 5.906.668 11.812 1.329 17.718 1.991 11.568 1.297 23.136 2.601 34.703 3.91v2h8l-1 2a109.02 109.02 0 0 1-7.312 1.5c-4.191.726-7.91 1.477-11.688 3.5-15.304 4.202-31.301 1.493-46.75-.375-1.904-.225-3.807-.449-5.711-.672-2.808-.329-5.615-.66-8.422-.996-4.48-.535-8.961-1.054-13.447-1.532l-2.527-.271c-1.566-.166-3.133-.329-4.7-.489-5.223-.555-5.223-.555-7.443-1.665a102.301 102.301 0 0 0-4.883-.465l-3.017-.233a5043.89 5043.89 0 0 1-3.225-.24c-9.671-.756-19.266-1.734-28.875-3.062l1-3c2.801-.983 2.801-.983 6.527-1.824l2.009-.458c1.41-.318 2.822-.63 4.235-.935 2.131-.463 4.255-.95 6.379-1.441 1.376-.307 2.751-.612 4.127-.916l3.758-.831c8.003-1.424 16.177-.511 24.188.415Z" fill="#3E3766"/><path d="M501.688 461.687a2922.923 2922.923 0 0 0 7.626 2.46c5.404 1.715 10.841 3.319 16.275 4.936a4945.367 4945.367 0 0 0 4.536 1.348A188.1 188.1 0 0 1 535 472c-1.116 3.349-1.546 3.637-4.395 5.418l-2.128 1.352-2.289 1.417a5476.917 5476.917 0 0 0-7.011 4.403 107.346 107.346 0 0 0-5.622 3.91l-2.993 2.187-2.558 1.95c-7.493 3.4-15.508 1.023-22.949-1.481l-2.715-.874c-2.826-.914-5.646-1.848-8.465-2.782-1.929-.628-3.859-1.254-5.789-1.879A2490.84 2490.84 0 0 1 454 481v-3c2.076-1.638 2.076-1.638 4.969-3.398l3.172-1.954 3.359-2.023 3.266-2a818.416 818.416 0 0 1 6.351-3.851 103.898 103.898 0 0 0 5.203-3.4c7.354-5.135 13.439-2.307 21.368.313Z" fill="#BFA4C4"/><path d="m703 461 3.883.98c1.415.398 2.829.801 4.242 1.207l2.318.656c2.52.714 5.039 1.435 7.557 2.157l5.598 1.594c4.383 1.249 8.765 2.502 13.146 3.759 3.084.885 6.17 1.766 9.256 2.647-4.232 5.278-8.581 9.252-14.062 13.187a6338.476 6338.476 0 0 0-4.161 3.043l-2 1.42c-1.977 1.427-1.977 1.427-4.148 3.838-4.671 2.686-10.07.195-15.065-1.139a411.8 411.8 0 0 1-7.291-2.169l-2.647-.799c-2.752-.831-5.501-1.668-8.251-2.506l-5.645-1.707A7465.377 7465.377 0 0 1 672 483c0-4.643 2.82-6.819 6-10 2.869-2.496 5.865-4.762 8.938-7l2.341-1.809c4.928-3.607 7.566-5.001 13.721-3.191Z" fill="#A080CC"/><path d="M568.543 451.777c4.243.274 7.767 1.419 11.769 2.785 8.068 2.658 16.19 5.043 24.376 7.313l3.385.94c2.642.731 5.284 1.459 7.927 2.185v3a99.41 99.41 0 0 1-7.188 5.125c-1.476.974-2.951 1.949-4.425 2.926l-2.245 1.483a103.27 103.27 0 0 0-5.747 4.259l-1.681 1.29a322.336 322.336 0 0 0-4.456 3.53c-4.892 2.082-8.27.811-13.258-.613l-3.562-.975a644.429 644.429 0 0 1-9.943-2.856c-2.056-.606-4.114-1.205-6.173-1.804-6.821-1.99-13.601-4.055-20.322-6.365v-3a94.795 94.795 0 0 1 7.25-4.688c1.466-.886 2.931-1.774 4.395-2.664l2.221-1.34c17.105-10.481 17.105-10.481 17.677-10.531Zm301.145-177.714 4.185.853c3.377.688 6.752 1.384 10.127 2.084l1 3c-2.45 1.895-4.939 3.732-7.438 5.563l-2.083 1.615c-3.52 2.537-6.174 4.262-10.6 3.857A115.84 115.84 0 0 1 860 290l-3.315-.682a928.873 928.873 0 0 1-15.201-3.322l-3.773-.816-3.397-.759c-7.01-.891-11.592.89-17.126 5.017l-1.733 1.236c-2.306 1.661-4.443 3.314-6.455 5.326a93.136 93.136 0 0 1-8.289-1.555l-2.48-.546c-2.621-.581-5.239-1.177-7.856-1.774-1.773-.396-3.547-.79-5.32-1.184-4.355-.968-8.706-1.951-13.055-2.941l-1 2-1-6c3.346-2.714 6.711-5.355 10.25-7.812l2.641-1.895c8.532-3.548 20.639 1.379 29.484 3.274 1.995.425 3.991.84 5.988 1.253l3.572.759c5.974.821 8.95-1.801 13.627-5.204l1.69-1.312c9.194-6.437 22.24-1.117 32.436 1Z" fill="#C0A6C5"/><path d="M885 278c5.93.595 11.7 1.428 17.535 2.629l2.316.466c2.404.486 4.808.977 7.211 1.467l4.936.999C921 284.37 925 285.183 929 286l-1.816.851c-3.737 1.966-6.767 4.932-9.938 7.692C913.204 298 913.204 298 911 298v2l3.486.398c4.295.538 8.499 1.339 12.733 2.231l2.252.466c2.344.487 4.686.977 7.029 1.467l4.805.999c3.899.809 7.797 1.623 11.695 2.439-2.69 3.453-5.205 6.11-8.75 8.688-2.364 1.673-2.364 1.673-4.25 3.312v2c-9.108-1.758-18.145-3.81-27.188-5.877-5.933-1.337-11.758-2.518-17.812-3.123v-3a71.774 71.774 0 0 1 5.875-4.688l1.684-1.259C906.719 301 906.719 301 909 301v-2l-1.673-.111c-7.804-.639-15.318-2.257-22.952-3.951-1.303-.286-2.607-.57-3.91-.854A3070.75 3070.75 0 0 1 871 292c1.595-4.426 3.054-6.18 7-8.812l2.688-1.833C883 280 883 280 885 280v-2Z" fill="#664186"/><path d="m364.312 259.875 2.167.527c5.263 1.34 5.263 1.34 7.521 3.598.57 6.267.57 6.267-1.258 8.617-1.925 1.528-3.611 2.272-5.93 3.071l-2.167.761L363 277l2.152.621 2.786.817 2.777.808C373 280 373 280 374 281c.099 2.144.13 4.291.125 6.438l.008 3.558C374 294 374 294 373 296c-2.188 1.176-2.188 1.176-5 2.313l-2.75 1.175c-3.926.618-6.02-.192-9.672-1.569-2.861-1.02-5.718-1.748-8.672-2.454l-3.179-.764c-2.182-.516-4.364-1.029-6.547-1.539l-3.149-.76-2.857-.672C329 291 329 291 328 289a5619.87 5619.87 0 0 1 11.875-5l3.418-1.445 3.262-1.367 3.015-1.27C352 279 352 279 354 279v-2l-2.789-.352c-5.248-.753-10.41-1.886-15.586-3.023l-3.059-.633-2.902-.64-2.642-.568L325 271l-1-3a1602.55 1602.55 0 0 1 12.062-5l3.436-1.445c9.143-3.732 15.38-4.146 24.814-1.68Z" fill="#BEA4C3"/><path d="M348 386c2.51.52 4.96 1.101 7.438 1.75l2.196.566c2.124.553 4.246 1.116 6.366 1.684l3.109.832c4.434 1.256 7.977 2.696 11.891 5.168 2.641 1.089 5.308 2.042 8 3-4.727 3.744-10.037 6.445-15.343 9.263a264.187 264.187 0 0 0-3.662 1.996c-12.28 6.809-12.28 6.809-18.825 5.38L347 415l-2.496-.623c-2.668-.693-5.302-1.46-7.942-2.252l-2.658-.777a689.354 689.354 0 0 1-5.259-1.566 209.24 209.24 0 0 0-5.497-1.541l-2.746-.749-2.488-.653L316 406l-1-3 2.922-1.453c3.566-1.774 7.131-3.551 10.695-5.328l4.636-2.308c2.217-1.102 4.433-2.208 6.649-3.313l2.106-1.045c3.208-1.461 3.208-1.461 5.992-3.553Z" fill="#8E66AF"/><path d="m197 368 1 2c2.328.368 4.663.695 7 1 2.284.638 4.554 1.329 6.809 2.066l3.759 1.221 3.87 1.275 3.951 1.288c3.205 1.045 6.409 2.095 9.611 3.15-2.676 2.676-5.836 3.903-9.238 5.441l-2.175.994c-1.52.692-3.041 1.382-4.562 2.07-2.321 1.05-4.637 2.111-6.953 3.173-1.478.672-2.956 1.343-4.435 2.013l-2.09.96c-7.291 3.276-11.119 3.556-18.692 1.04l-2.332-.744c-2.449-.784-4.892-1.584-7.335-2.385-1.664-.535-3.327-1.07-4.991-1.603-4.07-1.307-8.134-2.629-12.197-3.959v-2c5.78-2.722 11.577-5.261 17.562-7.5a125.106 125.106 0 0 0 14.219-6.387c2.36-1.184 4.757-2.164 7.219-3.113Z" fill="#7A519C"/><path d="M825 371c2.15.485 4.304.952 6.461 1.402l6.914 1.535 3.461.764A720.2 720.2 0 0 1 864 380v2a116.04 116.04 0 0 1-6.062 4.812l-3.622 2.692-1.757 1.301c-1.679 1.254-1.679 1.254-3.594 3.035-2.193 1.945-4.03 3.207-7.026 3.056-9.437-1.916-18.779-4.215-28.127-6.521A8923.463 8923.463 0 0 1 796 386c0-3 0-3 1.585-4.658a372.304 372.304 0 0 1 7.29-5.655l2.492-2.033c6.57-4.973 9.978-5.097 17.633-2.654Z" fill="#916AB1"/><path d="M205 320c2.089.566 4.182 1.117 6.277 1.656 2.221.612 4.441 1.227 6.661 1.844l3.439.934 3.275.91 2.969.818C230 327 230 327 232 329c-6.52 3.569-13.299 6.424-20.188 9.187l-2.59 1.045c-4.693 1.863-9.34 3.48-14.222 4.768v-2l-3.887-.813c-5.068-1.127-9.983-2.604-14.925-4.187l-2.522-.789c-3.724-1.183-7.198-2.392-10.666-4.211 4.815-3.21 10.215-5.191 15.549-7.388a298.953 298.953 0 0 0 4.119-1.746c13.987-6.043 13.987-6.043 22.332-2.866Z" fill="#643F84"/><path d="M641 169c8.047-.216 15.891.627 23.879 1.531l4.266.471c3.714.41 7.428.826 11.141 1.243 3.801.426 7.602.846 11.403 1.267 7.438.824 14.875 1.654 22.311 2.488v1h-7v2a691.917 691.917 0 0 1-11.625 4.062l-3.258 1.182c-7.721 2.597-13.945 3.058-21.999 2.022a321.68 321.68 0 0 0-7.204-.8c-4.729-.492-9.453-1.022-14.177-1.568-2.956-.339-5.914-.667-8.872-.994l-5.658-.65-2.67-.291-2.471-.293-2.167-.246C625 181 625 181 622 179l1-2c1.934-.534 3.872-1.056 5.828-1.5 1.867-.43 3.711-.956 5.547-1.5 4.501-1.242 9.04-2.133 13.625-3l-7-1v-1Z" fill="#5E5DA7"/><path d="m920 334 2.762.734c8.842 2.303 17.7 4.204 26.702 5.783 5.995 1.081 11.737 2.621 17.536 4.483-1.852 4.013-4.456 6.789-7.625 9.812l-1.504 1.561c-1.535 1.459-1.535 1.459-4.871 3.627-6.03-.394-11.863-1.747-17.75-3.066l-2.723-.601c-2.843-.629-5.685-1.262-8.527-1.895l-5.816-1.288A9683.278 9683.278 0 0 1 904 350v-2a169.433 169.433 0 0 1 6.875-5.438 727.273 727.273 0 0 0 3.867-2.933l1.746-1.31c1.779-1.436 1.779-1.436 3.512-4.319Z" fill="#7F58B1"/><path d="M496 494c8.734 2.015 17.118 4.642 25.594 7.516 7.668 2.598 15.393 4.967 23.218 7.046 6.02 1.615 11.599 3.644 17.188 6.438l-1 11c-6.322-1.122-12.452-2.631-18.625-4.375-15.345-4.332-30.86-7.957-46.375-11.625v-16Z" fill="#393368"/><path d="M262 314h5v2l1.852.227c7.428 1.067 14.592 2.83 21.836 4.773l3.008.792 2.816.77 2.545.692C301 324 301 324 302 326a750.632 750.632 0 0 1-12.585 5.664 286.744 286.744 0 0 0-4.265 1.933c-9.226 4.258-16.072 6.495-26.15 3.403l-3.145-.814c-3.18-.835-6.328-1.748-9.48-2.686l-3.254-.934c-7.866-2.311-7.866-2.311-10.121-4.566l29-12v-2Z" fill="#674288"/><path d="M278.975 296.126c3.582 1.546 7.358 2.32 11.15 3.186 1.336.328 2.672.657 4.008.989L297 301v2l-3.078 1.137-4.172 1.55-2.203.815a198.278 198.278 0 0 0-15.606 6.615c-8.72 2.617-16.887-.134-25.379-2.555l-3.583-.986c-8.603-2.388-8.603-2.388-10.979-3.576v-2c32.228-14.866 32.228-14.866 46.975-7.874Z" fill="#5A3878"/><path d="M885 278c5.93.595 11.7 1.428 17.535 2.629l2.316.466c2.404.486 4.808.977 7.211 1.467l4.936.999C921 284.37 925 285.183 929 286l-1.816.851c-3.737 1.966-6.767 4.932-9.938 7.692C913.204 298 913.204 298 911 298l-1 2-39-8c2.043-5.107 2.699-5.943 7-8.812l2.688-1.833C883 280 883 280 885 280v-2Z" fill="#5C3A7A"/><path d="m851.562 286.938 3.846.802 3.658.787 3.311.711C865 290 865 290 867 292a2471.057 2471.057 0 0 1-5.188 3.813l-2.917 2.144L856 300l-2.363 1.762c-5.83 2.738-12.58 1.07-18.637-.293l-2.185-.471c-2.274-.492-4.544-.995-6.815-1.498l-4.66-1.012c-3.782-.821-7.562-1.651-11.34-2.488 1.88-4.24 4.653-6.294 8.438-8.812l1.716-1.272c9.125-6.08 21.538-1.128 31.408 1.022Z" fill="#623F81"/><path d="M325 270c2.244.545 4.489 1.087 6.734 1.629l1.934.466 6.082 1.468 4.137.998L354 277v2c-3.823 1.69-7.66 3.348-11.5 5l-3.266 1.445c-11.818 5.045-19.106 3.372-31.234.055l-3.793-1.012c-3.071-.82-6.14-1.65-9.207-2.488 1-3 1-3 3.345-4.274l3.081-1.242 3.353-1.351 3.533-1.383 3.499-1.43 3.365-1.336 3.091-1.227c2.959-.819 3.908-.754 6.733.243Z" fill="#4E3067"/><path d="M765 390c.218 2.858.375 5.7.5 8.562l.203 2.424c.117 3.574.069 6.021-2.174 8.907-2.088 1.862-4.249 3.487-6.529 5.107l-2.391 1.837a411.822 411.822 0 0 1-7.421 5.538l-2.561 1.902-2.459 1.809-2.21 1.626C738 429 738 429 735 430c.023-3.751.1-7.5.188-11.25l.017-3.223c.223-7.882.223-7.882 3.096-11.121L741 403l2-1.203 2-1.047c5.243-2.821 10.249-5.994 15.277-9.176C763 390 763 390 765 390Z" fill="#30264F"/><path d="M415 201c16.807.485 33.394 3.063 50.027 5.35 3.437.472 6.874.941 10.312 1.404 2.556.345 5.11.695 7.664 1.052 6.714.904 13.221 1.434 19.997 1.194l-1 2h-4v78h-5l4-1v-76h-8a215.192 215.192 0 0 1-7.594-.886l-2.156-.286c-2.322-.31-4.644-.627-6.965-.945l-4.868-.658c-3.386-.459-6.77-.922-10.155-1.388-4.345-.597-8.692-1.181-13.04-1.761-3.344-.449-6.687-.905-10.029-1.364-1.604-.219-3.208-.435-4.812-.649a996.366 996.366 0 0 1-6.693-.918l-3.85-.525L416 203l-1-2Z" fill="#655A9D"/><path d="M386 482c7.662 1.292 15.162 2.949 22.688 4.875a15795.017 15795.017 0 0 0 9.399 2.377c9.409 2.384 18.828 4.73 28.246 7.082 5.066 1.265 10.132 2.532 15.198 3.799l5.77 1.442L493 508l-2 2c-10.479-.335-21.743-4.613-31.875-7.191l-6.052-1.532c-4.206-1.064-8.412-2.131-12.617-3.2a17408.19 17408.19 0 0 0-16.185-4.102c-5.153-1.304-10.306-2.61-15.459-3.916l-2.978-.755c-2.772-.702-5.543-1.406-8.314-2.111l-2.494-.631c-3.044-.775-6.045-1.568-9.026-2.562v-2Z" fill="#211B3A"/><path d="M527 216c16.746.676 33.426 2.531 50 5v1h-5l-1 2a6195.943 6195.943 0 0 1-15.424-2.026c-1.746-.231-3.493-.46-5.24-.687-2.52-.328-5.039-.662-7.559-.998l-2.343-.3A80.656 80.656 0 0 1 527 217v-1Z" fill="#A7A5DC"/><path d="M415 201c13.773.543 27.344 2.167 41 4-8.239 4.473-20.791.721-29.812-.438l-2.986-.369-2.784-.377-2.507-.329L416 203l-1-2Z" fill="#5A4D8A"/><path d="M597 536c7.653.483 14.742 2.038 22.125 4.062l3.187.854c2.565.688 5.127 1.383 7.688 2.084v2c-6.984-.686-13.637-2.234-20.438-3.938l-3.333-.802-3.163-.787-2.876-.711C598 538 598 538 597 536Z" fill="#231C3C"/><path d="M636 278h2c.118 11.384-.134 22.648-1 34h-2c-.103-11.391-.053-22.648 1-34Z" fill="#9B99D5"/><path d="m772 183 5 1v2a6861.028 6861.028 0 0 1-12.28 4.272c-1.394.484-2.786.969-4.179 1.456-2 .697-4.001 1.391-6.002 2.084l-3.65 1.27C748 196 748 196 746 196v-2c17.149-6.574 17.149-6.574 26-9v-2Z" fill="#5E579B"/><path d="M679 216c2.125.938 2.125.938 4 2l-4 2-2 49h-1c-.105-17.363-.167-34.666 1-52l2-1Z" fill="#6B63AA"/><path d="M541 522c6.698-.536 12.168 1.034 18.566 2.977 4.116 1.226 8.231 2.153 12.434 3.023v2c-6.669-.603-12.952-1.789-19.438-3.438l-2.716-.658-2.592-.65-2.334-.584C543 524 543 524 541 522Z" fill="#262146"/><path d="M386 482c10.495 1.613 20.728 4.358 31 7-2.607 1.759-3.767 2.033-6.933 1.584l-3.364-.92-3.652-.976-3.801-1.063-3.848-1.039c-3.137-.849-6.271-1.712-9.402-2.586v-2Z" fill="#1E1733"/><path d="M550 219c9.133-.29 17.963.826 27 2v1h-5l-1 2c-3.127-.445-6.251-.908-9.375-1.375l-2.695-.383-2.578-.39-2.381-.349C552 221 552 221 550 219Z" fill="#AFADE1"/><path d="M506 213c14.781.964 14.781.964 21 2l1 3c-2.73-.283-5.459-.576-8.188-.875l-2.33-.238c-4.14-.462-7.674-1.071-11.482-2.887v-1Z" fill="#9F9DD7"/><path d="M373 336h1v5l3 1-1 1c-.032 3.304.069 6.596.16 9.898C376 356 376 356 374 359c-1.249-7.651-1.091-15.274-1-23Z" fill="#46407D"/><path d="M705 208v2l-18 6 1-3a77.32 77.32 0 0 1 7.438-2.688l2.103-.681C702.662 208 702.662 208 705 208Z" fill="#635596"/><path d="m718 203 2 1-2-1Zm0 1v2c-1.79.671-3.582 1.336-5.375 2l-3.023 1.125C707 210 707 210 705 210v-3a921.746 921.746 0 0 1 4.812-1.5l2.708-.844C715 204 715 204 718 204Z" fill="#5C4E8D"/><path d="M639 230h6l-1.953 1.578c-2.647 3.132-2.635 5.12-2.797 9.172l-.172 3.547L640 247h-1v-17Z" fill="#B0AEE2"/><path d="M669 220v3l-9 1v-2c3.371-1.498 5.204-2 9-2Z" fill="#A3A1DB"/><path d="M561 527c7.429-.143 7.429-.143 11 1v2a337.987 337.987 0 0 1-4.375-.375l-2.461-.211C563 529 563 529 561 527Z" fill="#1E1834"/><path d="m587 223 12 1c-3.644 2.429-5.712 2.162-10 2v-2l-2-1Z" fill="#B8B6E6"/></svg>